<?xml version="1.0" encoding="UTF-8"?>
<svg version="1.1" xmlns="http://www.w3.org/2000/svg" width="467" height="468">
<path d="M0 0 C16.25967569 4.64562163 31.75848331 13.62000825 44.00390625 25.1796875 C45.87265788 27.04976369 45.87265788 27.04976369 48 28 C48 28.66 48 29.32 48 30 C48.66 30 49.32 30 50 30 C66.10694991 48.08642355 76.07982545 69.07060118 80 93 C80.32871094 92.11441406 80.65742188 91.22882813 80.99609375 90.31640625 C92.26057748 60.68688505 110.35747218 34.54430632 139.953125 21.1640625 C165.79112114 10.51025106 196.11987279 17.87145203 220.9375 28.125 C224.40234375 29.5703125 224.40234375 29.5703125 227 31 C228 34 228 34 227.06640625 36.27734375 C210.94919148 64.78597558 190.74477022 85.0157118 158.8125 94.125 C151.67655957 96.09820304 144.49681362 97.90003143 137.3125 99.6875 C136.46888916 99.89882568 135.62527832 100.11015137 134.75610352 100.32788086 C131.53985221 101.13154137 128.33134429 101.92883881 125.08984375 102.625 C119.40040789 103.99274418 114.70951854 106.73182034 109.75 109.75 C108.73824707 110.35944458 108.73824707 110.35944458 107.70605469 110.98120117 C102.92504289 114.01994975 99.45640138 117.52452816 96 122 C93.49310702 113.33836336 100.11836144 103.01839141 104.0078125 95.46484375 C108.7110561 87.28488871 114.7565188 80.04392751 121 73 C114.51262652 77.39968148 107.57354427 82.85291147 104 90 C103.34 90 102.68 90 102 90 C101.74863281 90.68320313 101.49726563 91.36640625 101.23828125 92.0703125 C100.07045068 94.83331857 98.70639354 97.39883106 97.23339844 100.0090332 C92.73786042 108.02943401 89.43206723 116.10838003 87 125 C86.8251709 125.63615234 86.6503418 126.27230469 86.47021484 126.92773438 C83.79613817 137.00251247 82.40973939 147.16776326 81.125 157.5 C77.47811669 186.49117469 69.31803718 210.7425404 56.54931641 236.81152344 C55.07513013 239.845383 53.63061046 242.89106581 52.19921875 245.9453125 C47.07439603 256.8633329 41.66829859 267.54766842 35.79492188 278.0847168 C35.31345703 278.9487915 34.83199219 279.81286621 34.3359375 280.703125 C33.90845215 281.46270508 33.4809668 282.22228516 33.04052734 283.00488281 C31.29462368 286.35249537 30.88367745 288.97374408 30.9375 292.6875 C30.94652344 293.49574219 30.95554688 294.30398438 30.96484375 295.13671875 C30.97644531 295.75160156 30.98804688 296.36648438 31 297 C35.93626914 296.54081217 38.44901264 295.46221267 42 292 C44.09462952 289.39788304 46.07308086 286.72814669 48 284 C51 285 51 285 52 287 C52.36664626 292.59135554 52.27806514 295.30021223 49 300 C43.06992992 306.51216285 36.38581634 311.11674718 27.54296875 312.33984375 C22.89875913 312.53238975 19.70934584 312.03491932 16 309 C12.70205913 304.0530887 13.3931246 298.77489857 14 293 C17.50897303 280.3350555 25.66889138 268.88203176 33 258.125 C56.3270257 223.72183259 63.09983846 180.73979704 57 140 C56.673283 138.33202371 56.34122742 136.66506839 56 135 C56.01571045 135.87398437 56.0314209 136.74796875 56.04760742 137.6484375 C56.43919826 162.86887004 55.90835452 187.75293285 48 212 C47.34 212.33 46.68 212.66 46 213 C45.97421875 211.98164063 45.9484375 210.96328125 45.921875 209.9140625 C45.17392268 188.77935585 39.77247644 168.80019492 28.18969727 150.89892578 C26.29620459 147.87664258 24.74659727 144.70406494 23.1875 141.5 C22.49512399 140.09228442 21.80240592 138.68473703 21.109375 137.27734375 C20.76068359 136.56690918 20.41199219 135.85647461 20.05273438 135.12451172 C19.0370714 133.07481338 17.99997323 131.03782587 16.953125 129.00390625 C5.80219527 107.28893783 -1.26529425 85.49286242 -3 61 C-3.10054688 59.60152832 -3.10054688 59.60152832 -3.203125 58.17480469 C-4.46391251 39.1963158 -4.31136582 19.79068702 -1 1 C-0.67 0.67 -0.34 0.34 0 0 Z M29 21 C29.99 22.485 29.99 22.485 31 24 C31.66 23.67 32.32 23.34 33 23 C31.68 22.34 30.36 21.68 29 21 Z M33 24 C33.845625 24.969375 34.69125 25.93875 35.5625 26.9375 C38.71333481 30.58977408 41.61272166 34.40319882 44.484375 38.27734375 C44.98453125 38.84582031 45.4846875 39.41429687 46 40 C46.66 40 47.32 40 48 40 C48.37705078 41.08861328 48.37705078 41.08861328 48.76171875 42.19921875 C50.09771254 45.22100912 51.68451789 47.29391314 53.8125 49.8125 C57.28696574 54.03375437 60.21476863 58.29992206 63 63 C63.33 62.34 63.66 61.68 64 61 C58.99780041 47.30619569 48.13272916 34.31877009 37 25 C34.81892183 24.16062132 34.81892183 24.16062132 33 24 Z M128.23046875 33.359375 C123.36391575 36.93897616 119.77215709 41.1518816 118 47 C119.33897583 46.04956626 120.67105427 45.08940853 122 44.125 C123.11375 43.32449219 123.11375 43.32449219 124.25 42.5078125 C124.8275 42.01023437 125.405 41.51265625 126 41 C126 40.34 126 39.68 126 39 C126.51949219 38.75121094 127.03898438 38.50242187 127.57421875 38.24609375 C131.3332918 36.31510453 134.96105333 34.15075491 138.60351562 32.00976562 C142.63283639 29.67653844 146.6885813 27.76100201 151 26 C143.54494042 23.34738578 134.41639959 29.4648939 128.23046875 33.359375 Z M64 63 C65 65 65 65 65 65 Z " fill="#363435" transform="translate(98,69)"/>
<path d="M0 0 C6.87102286 0.92249844 12.0402259 3.02757342 17 8 C18.04976964 11.14930893 18.10131595 13.38814456 18.0625 16.6875 C18.05347656 17.68136719 18.04445313 18.67523438 18.03515625 19.69921875 C18.01775391 20.83810547 18.01775391 20.83810547 18 22 C18.48210937 21.14535156 18.96421875 20.29070312 19.4609375 19.41015625 C20.09257812 18.30542969 20.72421875 17.20070313 21.375 16.0625 C22.00148438 14.96035156 22.62796875 13.85820312 23.2734375 12.72265625 C25 10 25 10 27 9 C30.47544979 10.20060993 33.25940566 11.32883638 36 13.8125 C37.69808837 17.52706831 36.32571292 21.0222587 35.07617188 24.77319336 C34.52799805 26.1674353 34.52799805 26.1674353 33.96875 27.58984375 C33.37126953 29.13768555 33.37126953 29.13768555 32.76171875 30.71679688 C31.92189943 32.86054618 31.08075747 35.00377782 30.23828125 37.14648438 C28.18732528 42.46635885 26.45400779 47.30058083 26 53 C30.40225436 51.50263457 32.15770496 48.16467367 34.4375 44.375 C34.85636475 43.6936499 35.27522949 43.0122998 35.70678711 42.31030273 C41.47115119 32.78098722 46.64148808 22.90190794 51.85180664 13.06274414 C53 11 53 11 54 10 C61.07379518 10.23192771 61.07379518 10.23192771 64.5625 13.125 C66.38022457 16.76044913 65.95387549 19.19527121 65 23 C63.51658102 27.19725333 61.72738809 31.2650592 59.97070312 35.35351562 C57.3666349 41.59272881 55 48.14950817 55 55 C60.69436317 52.21903194 62.36916242 48.83170074 64.7265625 43.046875 C67.57253414 36.23749501 71.11546678 29.97530577 75.0625 23.75 C75.49626953 23.05648438 75.93003906 22.36296875 76.37695312 21.6484375 C78.46537288 18.32985268 80.57380499 15.08643824 83 12 C91.29565217 14.29565217 91.29565217 14.29565217 94.0625 17.0625 C95 19 95 19 95 21 C95.90878906 20.45859375 95.90878906 20.45859375 96.8359375 19.90625 C102.98790217 16.49900803 107.95825443 14.84930623 115 16 C117.98990788 17.24579495 119.39265669 18.19020892 121.3125 20.75 C124.81497387 32.21264174 116.63652307 45.18684811 111.453125 55.13671875 C109.93071065 57.96229582 109.93071065 57.96229582 109 61 C110.99378226 60.38327394 110.99378226 60.38327394 113 59 C114.18057544 56.484494 114.18057544 56.484494 114.9375 53.5 C118.34915663 42.50396825 123.24892729 31.37720607 133.74609375 25.44921875 C139.50986566 23.12292523 143.98954254 22.34194277 150 24 C153 26.0625 153 26.0625 155 28 C155.66 26.68 156.32 25.36 157 24 C160.98329136 24.23899748 164.19540914 24.74263864 167.5 27 C170 30 170 30 170.12646484 31.8815918 C167.97334546 47.6681184 162.25016858 62.94722429 156.5625 77.75 C156.13275879 78.89057861 155.70301758 80.03115723 155.26025391 81.20629883 C150.55850372 93.11560052 144.58011417 104.37843739 132.66796875 110.125 C129.51113341 111.16033106 126.81974836 111.33621789 123.5 111.375 C122.3965625 111.40335937 121.293125 111.43171875 120.15625 111.4609375 C116.30297369 110.89820655 114.69025254 109.77813738 112 107 C111.22265625 105.03515625 111.22265625 105.03515625 111.0625 103.0625 C110.95615234 102.08990234 110.95615234 102.08990234 110.84765625 101.09765625 C111.03943598 98.4569969 111.92569815 96.40359363 113 94 C114.14275391 93.99613281 114.14275391 93.99613281 115.30859375 93.9921875 C123.05914332 93.70190474 128.23812259 92.31503794 134 87 C135.9241691 84.74158557 137.42947993 82.53309689 139 80 C137.5459375 80.7425 137.5459375 80.7425 136.0625 81.5 C130.47027619 83.87726114 125.29272738 83.84915829 119.625 81.75 C115.32495521 78.88330347 113.7319271 75.79610582 112 71 C111.030625 71.66 110.06125 72.32 109.0625 73 C104.74818173 75.4590739 100.87009042 75.77520166 96 75 C91.45945946 72.91891892 91.45945946 72.91891892 90 70 C89.11315329 58.82573139 93.85607907 49.96344573 98.73046875 40.140625 C100.10622961 36.73720429 100.62047718 33.63976107 101 30 C95.19048932 30.62171956 92.94575722 33.64146312 89.2890625 37.921875 C83.49728875 45.71013049 79.28021873 53.82971978 79.0703125 63.6953125 C79.00060899 65.9800387 78.75704481 67.84385971 78 70 C75.43435275 71.28282363 73.48966931 71.20391953 70.625 71.25 C69.66851562 71.27578125 68.71203125 71.3015625 67.7265625 71.328125 C64.5548959 70.94643446 63.30266134 70.17079087 61 68 C60.34 67.01 59.68 66.02 59 65 C58.071875 65.639375 57.14375 66.27875 56.1875 66.9375 C51.60996745 69.89943283 47.40886833 70.89620625 42 70 C38.83427953 67.91197161 37.3167627 66.41361266 36.4765625 62.6640625 C36.21632565 60.43446571 36.05376202 58.24334248 36 56 C35.443125 56.67546875 34.88625 57.3509375 34.3125 58.046875 C25.19759877 68.7014555 25.19759877 68.7014555 19 70 C15.68825655 69.98919496 12.87451697 69.6895583 10 68 C6.51712374 63.02009798 6.7603909 58.89038711 7.3125 53.125 C7.37373047 52.34125 7.43496094 51.5575 7.49804688 50.75 C7.65007868 48.83206031 7.82292808 46.91579014 8 45 C7.50371094 45.71285156 7.00742187 46.42570312 6.49609375 47.16015625 C-1.84145097 58.91498685 -1.84145097 58.91498685 -7 63 C-7.66 63 -8.32 63 -9 63 C-9 63.66 -9 64.32 -9 65 C-24.55621199 73.78679409 -24.55621199 73.78679409 -33 72 C-36.74932462 70.47496388 -36.74932462 70.47496388 -38.1875 67.75 C-39.04509257 64.84737898 -39.52564154 61.98639585 -40 59 C-40.59167969 59.68707031 -41.18335938 60.37414062 -41.79296875 61.08203125 C-42.97826172 62.43361328 -42.97826172 62.43361328 -44.1875 63.8125 C-44.96480469 64.70582031 -45.74210937 65.59914063 -46.54296875 66.51953125 C-50.14798596 70.15893654 -53.28346766 72.42652771 -58.5 72.5 C-62.31004573 72.39822916 -62.91680026 72.06791815 -66.0625 69.5 C-67.0215625 68.2625 -67.0215625 68.2625 -68 67 C-68.61875 67.9075 -69.2375 68.815 -69.875 69.75 C-73.3673878 73.91705363 -77.7546789 75.82164393 -83 77 C-86.88025925 76.50726867 -88.93407581 75.92380096 -91.875 73.375 C-93.50221426 69.9397699 -93.68470662 66.78352059 -94 63 C-94.50789063 63.74765625 -95.01578125 64.4953125 -95.5390625 65.265625 C-103.28677872 76.35037255 -103.28677872 76.35037255 -110.5 78.875 C-113.80851904 79.04042595 -115.99237334 78.37304696 -119 77 C-121.65840803 74.5364162 -122.21811495 72.47684989 -122.43359375 68.98046875 C-122.45775976 67.38299475 -122.45771988 65.78502882 -122.4375 64.1875 C-122.42847656 63.33728271 -122.41945312 62.48706543 -122.41015625 61.61108398 C-122.09098106 49.79384407 -117.82631853 26.82631853 -109 18 C-105.13060461 17.5500703 -103.1942845 17.90102487 -99.6875 19.6875 C-97 22 -97 22 -96.15625 24.0625 C-95.92113485 28.48266491 -97.38310735 32.16629333 -98.8125 36.3125 C-102.7956977 47.15769873 -102.7956977 47.15769873 -104.125 58.5 C-104.08375 59.655 -104.0425 60.81 -104 62 C-100.54602222 58.91100804 -98.71292807 55.85490387 -96.72265625 51.6875 C-96.42942978 51.07793457 -96.13620331 50.46836914 -95.83409119 49.84033203 C-95.2159227 48.55120617 -94.60178264 47.2601417 -93.99145508 45.96728516 C-93.07660608 44.02987301 -92.14991148 42.0985282 -91.22070312 40.16796875 C-87.91442188 33.2613915 -84.80063325 26.30209305 -81.94311523 19.1953125 C-81 17 -81 17 -80 16 C-75.95434761 15.61099496 -73.66912572 15.6072523 -70.125 17.6875 C-67.6976207 20.32905983 -67.36700564 21.48942769 -67 25 C-67.51318359 27.50439453 -67.51318359 27.50439453 -68.3984375 30.1328125 C-68.87023437 31.59074219 -68.87023437 31.59074219 -69.3515625 33.078125 C-70.02598766 35.08595564 -70.70046556 37.09376857 -71.375 39.1015625 C-73.53259127 45.76729162 -74.6785152 51.99782041 -75 59 C-71.67975665 58.38233191 -71.67975665 58.38233191 -69.3828125 55.91015625 C-67.76582641 52.50717705 -66.81271523 49.06765231 -65.875 45.4375 C-63.94018455 38.41192515 -61.37664678 31.82498702 -58.375 25.1875 C-57.99069824 24.33406006 -57.60639648 23.48062012 -57.21044922 22.60131836 C-55.42293708 18.73329112 -53.64702427 15.36186238 -51 12 C-42.88679245 12.78011611 -42.88679245 12.78011611 -40 16 C-38.84354994 20.49018916 -39.05763837 23.185036 -40.80078125 27.44921875 C-41.40116211 28.96999023 -41.40116211 28.96999023 -42.01367188 30.52148438 C-42.44228516 31.56626953 -42.87089844 32.61105469 -43.3125 33.6875 C-46.45822378 41.42296604 -48.85382211 48.70585866 -50 57 C-45.38648188 53.8165917 -43.23606558 50.45574262 -40.6875 45.625 C-39.9056053 44.18714233 -39.12304006 42.74964911 -38.33984375 41.3125 C-37.95038574 40.590625 -37.56092773 39.86875 -37.15966797 39.125 C-35.41341575 35.92513068 -33.57948817 32.7777332 -31.75 29.625 C-28.95720418 24.75851148 -26.34312848 19.84860257 -23.91015625 14.79296875 C-23 13 -23 13 -22 12 C-17.79292185 12.1618107 -15.4622539 12.67257016 -12 15.125 C-10 18 -10 18 -10.16015625 21.1171875 C-11.14137722 25.65362304 -12.67426282 29.71939162 -14.4375 34 C-18.89377114 44.63362301 -18.89377114 44.63362301 -20 56 C-10.3827756 51.84710764 -6.28332652 42.7083163 -2.5390625 33.34765625 C1.32879844 22.69427047 4.88121186 10.9827267 0 0 Z M140.7421875 42.02734375 C136.16578887 47.2091404 133.29473236 54.26739175 132 61 C132.2861123 64.31460798 132.2861123 64.31460798 133 67 C135.3015411 67.77802187 135.3015411 67.77802187 138 68 C140.3450486 66.80453646 140.3450486 66.80453646 142 65 C142 64.34 142 63.68 142 63 C142.66 63 143.32 63 144 63 C145.15879664 60.81855776 146.30187378 58.63096983 147.4375 56.4375 C147.76298828 55.82841797 148.08847656 55.21933594 148.42382812 54.59179688 C150.56999996 50.41008061 151.67320153 46.7619205 152 42 C151.19420215 39.6284995 151.19420215 39.6284995 150 38 C145.18304009 38 144.15198617 38.93218316 140.7421875 42.02734375 Z M9 42 C10 44 10 44 10 44 Z " fill="#363435" transform="translate(275,297)"/>
<path d="M0 0 C3.89892161 2.90978633 5.03843347 6.49056838 5.7734375 11.12109375 C6.09907236 17.58978621 5.77375579 23.7190567 4.7734375 30.12109375 C5.47210938 29.32703125 6.17078125 28.53296875 6.890625 27.71484375 C7.8096055 26.68333502 8.72889223 25.65209905 9.6484375 24.62109375 C10.10863281 24.09644531 10.56882812 23.57179688 11.04296875 23.03125 C12.24515826 21.6896762 13.50589696 20.4011019 14.7734375 19.12109375 C15.4334375 19.12109375 16.0934375 19.12109375 16.7734375 19.12109375 C17.1446875 18.23744141 17.1446875 18.23744141 17.5234375 17.3359375 C21.34716416 10.56077182 30.61523969 5.61661225 37.7734375 3.12109375 C41.92019747 2.32317492 45.83315654 1.81718934 49.4765625 4.265625 C52.46341814 7.51855111 53.57612318 10.78017881 53.7734375 15.12109375 C53.4434375 15.78109375 53.1134375 16.44109375 52.7734375 17.12109375 C50.83203125 17.69140625 50.83203125 17.69140625 48.2109375 18.24609375 C42.95202369 19.59523918 38.29914228 21.58734016 33.4609375 23.99609375 C32.7918335 24.32367676 32.12272949 24.65125977 31.43334961 24.98876953 C28.1182439 26.6787263 25.24472095 28.4486358 22.41796875 30.87890625 C19.7734375 33.12109375 19.7734375 33.12109375 17.7734375 33.12109375 C17.7734375 33.78109375 17.7734375 34.44109375 17.7734375 35.12109375 C16.26953125 36.53125 16.26953125 36.53125 14.2109375 38.18359375 C9.08694804 42.5326026 3.93300997 47.64237635 1.7734375 54.12109375 C2.89685547 54.44787109 2.89685547 54.44787109 4.04296875 54.78125 C7.53474923 56.49467018 8.49852673 58.21696152 10.4609375 61.55859375 C10.79270996 62.11627441 11.12448242 62.67395508 11.46630859 63.24853516 C13.52178988 66.76262305 15.42788705 70.34674251 17.30078125 73.9609375 C17.73237549 74.79375244 18.16396973 75.62656738 18.60864258 76.48461914 C19.44864478 78.12026226 20.2784669 79.76118656 21.09643555 81.40795898 C23.46990894 86.07616495 26.03399242 89.89768627 29.63232422 93.71533203 C30.7734375 95.12109375 30.7734375 95.12109375 30.7734375 97.12109375 C35.87677767 99.02634075 40.23686456 100.54698398 45.7734375 100.12109375 C47.06002444 104.10507676 46.39830215 106.36077139 44.86328125 110.15234375 C42.58594402 114.26624326 39.22436658 116.63745072 34.7734375 118.12109375 C29.36829996 118.76007319 25.18342613 118.36335976 20.4765625 115.58203125 C15.68927585 111.47550555 12.75977926 106.70089206 10.2109375 100.99609375 C9.76161865 100.01322388 9.76161865 100.01322388 9.30322266 99.01049805 C7.11084042 94.11774258 5.34676907 89.15446797 3.73828125 84.0390625 C1.34924724 76.81392724 -1.7789817 69.89633949 -5.2265625 63.12109375 C-5.93619141 64.59255859 -5.93619141 64.59255859 -6.66015625 66.09375 C-10.18449504 73.31828379 -13.84247859 80.41151606 -17.9765625 87.30859375 C-18.34064209 87.91904541 -18.70472168 88.52949707 -19.07983398 89.15844727 C-22.34086519 94.51601533 -25.68422676 98.96799253 -30.6640625 102.80859375 C-31.40527344 103.38996094 -32.14648438 103.97132813 -32.91015625 104.5703125 C-38.39340739 108.24122431 -44.85909636 109.91801959 -51.41015625 108.72265625 C-55.41046428 107.43711303 -58.82625354 105.59527834 -61.37109375 102.12109375 C-63.30577072 97.59801335 -63.160216 92.87828061 -62.2265625 88.12109375 C-60.59170711 85.30838866 -58.70456474 83.21559564 -56.2265625 81.12109375 C-55.79085937 81.56582031 -55.35515625 82.01054687 -54.90625 82.46875 C-51.2232067 86.07059598 -51.2232067 86.07059598 -46.4140625 87.37109375 C-31.67149264 81.5896938 -25.41839494 70.23171771 -19.17431641 56.390625 C-14.37073 44.88775555 -10.64851 32.23536526 -9.4140625 19.80859375 C-9.30449219 18.82246094 -9.19492188 17.83632813 -9.08203125 16.8203125 C-9.25230214 13.64038862 -10.10374557 12.43041139 -12.2265625 10.12109375 C-15.6632919 10.9802761 -17.90968656 11.84591201 -20.6015625 14.18359375 C-22.8194643 18.19287777 -22.73962223 21.62971845 -22.2265625 26.12109375 C-21.7315625 27.60609375 -21.7315625 27.60609375 -21.2265625 29.12109375 C-19.5765625 29.45109375 -17.9265625 29.78109375 -16.2265625 30.12109375 C-16.70572917 36.47005208 -16.70572917 36.47005208 -18.7265625 38.99609375 C-23.23959542 41.02695856 -27.62725631 41.75967762 -32.484375 40.56640625 C-36.40304158 38.9324235 -38.57680046 37.27110631 -40.2265625 33.30859375 C-42.27309016 26.10587952 -41.28724455 19.84476073 -38.2265625 13.12109375 C-30.12403537 1.41744345 -13.96719902 -5.51336803 0 0 Z " fill="#363435" transform="translate(84.2265625,286.87890625)"/>
<path d="M0 0 C14.88643146 11.28644476 27.39371473 28.07508173 30 47 C30.23561098 50.20920887 30.33306053 53.407777 30.375 56.625 C30.39614868 57.80690918 30.39614868 57.80690918 30.41772461 59.01269531 C30.36152121 65.82824679 29.33571298 72.26387908 24.8125 77.5625 C24.214375 78.036875 23.61625 78.51125 23 79 C0.99109568 67.56629616 -12.14415434 48.87185402 -22.375 26.75 C-29.11177868 11.79864228 -29.11177868 11.79864228 -38.28515625 -1.6796875 C-38.85105469 -2.44539062 -39.41695312 -3.21109375 -40 -4 C-39.67 -4.99 -39.34 -5.98 -39 -7 C-25.87957671 -12.26506257 -11.33424746 -7.14014053 0 0 Z " fill="#832F31" transform="translate(238,215)"/>
<path d="M0 0 C6.68653122 1.15699529 11.24774884 6.67526245 15.1640625 11.87109375 C20.44940104 19.87597922 24.93189279 28.31067378 29.48754883 36.74462891 C41.25231375 59.30688914 41.25231375 59.30688914 59 77 C59 77.66 59 78.32 59 79 C59.763125 79.28875 60.52625 79.5775 61.3125 79.875 C64 81 64 81 67 83 C66.5 84.8125 66.5 84.8125 65 87 C56.82840355 91.57609401 46.30692562 91.34396168 37.390625 89.0859375 C20.1420081 82.81003229 7.05760445 70.10395118 -1.4375 54 C-8.49059471 38.54452289 -10.533184 24.05297752 -5.265625 7.76953125 C-3.88540491 4.74923483 -2.17323978 2.49739949 0 0 Z " fill="#832F31" transform="translate(188,216)"/>
<path d="M0 0 C4.13859446 6.20789169 4.66104714 15.30442015 3.5546875 22.6171875 C2.59258181 26.75017675 1.28766368 30.76835447 -0.0625 34.7890625 C-7.19606642 59.2215275 -0.93851898 85.02646376 10.50390625 106.87109375 C14.05043022 113.06543126 18.35614916 118.59290238 23 124 C23.49628906 124.59296875 23.99257812 125.1859375 24.50390625 125.796875 C31.33410432 133.28690943 40.97309878 139.48654939 50 144 C50 148.95 50 153.9 50 159 C37.5319433 153.14764686 26.30690721 146.22033566 16 137 C16 136.34 16 135.68 16 135 C15.34 135 14.68 135 14 135 C12.36296547 133.14083996 10.86154096 131.28757555 9.375 129.3125 C8.92987061 128.72380127 8.48474121 128.13510254 8.02612305 127.52856445 C-3.54416804 112.00017915 -11.09896376 95.91792842 -15 77 C-15.19207031 76.09765625 -15.38414063 75.1953125 -15.58203125 74.265625 C-18.98113172 47.70816715 -13.44375288 22.93065651 0 0 Z " fill="#7D3334" transform="translate(88,129)"/>
<path d="M0 0 C1.44808681 4.56085462 2.16611948 9.29194168 3 14 C3.226875 15.27875 3.45375 16.5575 3.6875 17.875 C3.82014098 19.24754583 3.91930411 20.62342313 4 22 C4.06445312 23.07765625 4.12890625 24.1553125 4.1953125 25.265625 C4.88513884 47.98390579 -1.15838214 72.5678709 -15 91 C-16.485 91.495 -16.485 91.495 -18 92 C-18.8709379 90.27921959 -19.72114558 88.54793677 -20.5625 86.8125 C-21.03816406 85.84957031 -21.51382812 84.88664062 -22.00390625 83.89453125 C-23.55745791 79.3800929 -22.48169829 77.03799027 -20.51171875 72.79296875 C-19.90394958 71.5909922 -19.29586014 70.38917755 -18.6875 69.1875 C-13.12961231 57.71741996 -10.40363418 45.75835009 -10 33 C-9.96003906 32.07316406 -9.92007812 31.14632812 -9.87890625 30.19140625 C-9.67541292 21.36937178 -10.84206031 12.72590265 -12 4 C-10.56988027 3.13353333 -9.13059381 2.28218171 -7.6875 1.4375 C-6.88699219 0.96183594 -6.08648437 0.48617187 -5.26171875 -0.00390625 C-3 -1 -3 -1 0 0 Z " fill="#7E3031" transform="translate(288,158)"/>
<path d="M0 0 C-2.38900714 2.68763304 -4.97188868 4.80552674 -7.9375 6.8125 C-8.58589844 7.25207031 -9.23429687 7.69164063 -9.90234375 8.14453125 C-12.69797166 9.28464766 -14.108621 8.79747474 -17 8 C-18.02996094 7.7628125 -19.05992187 7.525625 -20.12109375 7.28125 C-22.32956408 6.76099786 -24.53789787 6.24016579 -26.74609375 5.71875 C-33.28134363 4.2751894 -39.3874169 3.80652463 -46.0625 3.8125 C-46.99408936 3.81330566 -47.92567871 3.81411133 -48.88549805 3.81494141 C-60.78398995 3.91726561 -60.78398995 3.91726561 -72.2109375 6.89453125 C-74.1875 7.6875 -74.1875 7.6875 -78 8 C-81.7572435 5.39215855 -84.88279033 2.33439231 -88 -1 C-86.32137059 -4.35725882 -83.08946989 -4.79865658 -79.66796875 -5.98046875 C-52.9269363 -13.41327969 -25.37512258 -10.99198858 0 0 Z " fill="#803032" transform="translate(229,87)"/>
<path d="M0 0 C0.85465434 2.95049223 1.10760404 5.53089506 1.0625 8.59765625 C1.05420166 9.47679687 1.04590332 10.3559375 1.03735352 11.26171875 C1.02502686 12.18597656 1.0127002 13.11023438 1 14.0625 C0.94487709 20.71816574 0.98653224 27.23357216 1.87890625 33.84375 C2.02108396 36.3754305 1.58424776 38.54183167 1 41 C1.66 41 2.32 41 3 41 C3.12375 41.639375 3.2475 42.27875 3.375 42.9375 C3.58125 43.618125 3.7875 44.29875 4 45 C4.66 45.33 5.32 45.66 6 46 C6.4140625 48.06640625 6.4140625 48.06640625 6.625 50.5625 C6.69976562 51.38878906 6.77453125 52.21507812 6.8515625 53.06640625 C6.92503906 54.02353516 6.92503906 54.02353516 7 55 C7.66 55 8.32 55 9 55 C9.58052245 58.00988272 10.05989746 60.92889402 10 64 C8.0625 66.0625 8.0625 66.0625 6 67 C3.16625119 63.79663178 2.4794463 61.21912747 2 57 C1.67 57.66 1.34 58.32 1 59 C0.34 59 -0.32 59 -1 59 C-4.28375319 51.25972461 -5.30848318 44.59734743 -5.75390625 36.20703125 C-5.95171444 33.6292451 -6.36770757 31.47925189 -7 29 C-6.5625 26.25 -6.5625 26.25 -6 24 C-6.66 24 -7.32 24 -8 24 C-8 17.73 -8 11.46 -8 5 C-6.515 5.99 -6.515 5.99 -5 7 C-3.45833358 5.62514468 -3.45833358 5.62514468 -2 4 C-2 3.34 -2 2.68 -2 2 C-1.34 2 -0.68 2 0 2 C0 1.34 0 0.68 0 0 Z " fill="#822F2F" transform="translate(82,168)"/>
<path d="M0 0 C3.08261456 -0.1746397 6.16395833 -0.28094067 9.25 -0.375 C10.12269531 -0.42527344 10.99539062 -0.47554688 11.89453125 -0.52734375 C14.39473321 -0.58460028 16.56150041 -0.56347123 19 0 C21.46875 2.875 21.46875 2.875 23 6 C24.29682374 7.36886951 25.61823134 8.7169291 27 10 C26.67 10.66 26.34 11.32 26 12 C16.32845881 14.10943079 5.72358528 13.2752243 -4 12 C-3.45394953 7.41317608 -2.12954782 4.07639986 0 0 Z " fill="#7D3D40" transform="translate(171,284)"/>
<path d="M0 0 C-0.33 0.99 -0.66 1.98 -1 3 C-0.01 3.66 0.98 4.32 2 5 C0.31583984 5.45439453 0.31583984 5.45439453 -1.40234375 5.91796875 C-15.12259035 9.71654942 -27.381296 14.20057727 -35 27 C-35.99 26.67 -36.98 26.34 -38 26 C-37.34 25.67 -36.68 25.34 -36 25 C-36 24.34 -36 23.68 -36 23 C-35.34 23 -34.68 23 -34 23 C-33.67 21.68 -33.34 20.36 -33 19 C-32.34 19 -31.68 19 -31 19 C-31.66 17.35 -32.32 15.7 -33 14 C-23.56352314 6.89705538 -12.245479 -0.58311805 0 0 Z " fill="#2D2A2D" transform="translate(251,88)"/>
<path d="M0 0 C-0.49123448 6.26323959 -2.07961894 11.79797305 -4.0625 17.75390625 C-6.26384365 25.37605865 -6.18303599 32.94244957 -6.1875 40.8125 C-6.19974609 41.93720703 -6.21199219 43.06191406 -6.22460938 44.22070312 C-6.23524584 50.32248576 -5.86343391 55.94519105 -4.4309082 61.88549805 C-4 64 -4 64 -4 68 C-4.99 67.67 -5.98 67.34 -7 67 C-7 65.68 -7 64.36 -7 63 C-7.66 63 -8.32 63 -9 63 C-9.71247002 54.00506597 -10.14124563 45.02261434 -10.25 36 C-10.27126953 35.12899658 -10.29253906 34.25799316 -10.31445312 33.3605957 C-10.34585769 27.50756928 -9.25279696 23.39288479 -7 18 C-6.46128115 15.57455591 -6.46128115 15.57455591 -6.3125 13.5 C-6.209375 12.345 -6.10625 11.19 -6 10 C-5.34 10 -4.68 10 -4 10 C-4.061875 8.906875 -4.12375 7.81375 -4.1875 6.6875 C-4 3 -4 3 -2.5625 1.0625 C-1 0 -1 0 0 0 Z " fill="#6F3637" transform="translate(92,146)"/>
<path d="M0 0 C3.625 -0.1875 3.625 -0.1875 7 0 C7.33 1.32 7.66 2.64 8 4 C5.69 3.67 3.38 3.34 1 3 C1.99 5.31 2.98 7.62 4 10 C4.66 10 5.32 10 6 10 C6.474375 9.505 6.94875 9.01 7.4375 8.5 C9 7 9 7 12 7 C12 7.99 12 8.98 12 10 C11.01 10 10.02 10 9 10 C7.84162374 14.05431692 8.16308743 16.21812119 10 20 C8.68 20 7.36 20 6 20 C6 19.34 6 18.68 6 18 C5.01 18.66 4.02 19.32 3 20 C-0.5625 20.3125 -0.5625 20.3125 -4 20 C-6 17 -6 17 -5.875 13.9375 C-5 11 -5 11 -2.9375 9.625 C-2.298125 9.41875 -1.65875 9.2125 -1 9 C-1.20625 8.071875 -1.4125 7.14375 -1.625 6.1875 C-2 3 -2 3 0 0 Z M-1.5625 12.5 C-2.036875 12.995 -2.51125 13.49 -3 14 C-2.34 15.32 -1.68 16.64 -1 18 C0.65 17.34 2.3 16.68 4 16 C3.03114628 14.31503702 2.03013277 12.64821244 1 11 C-0.24076302 10.88457803 -0.24076302 10.88457803 -1.5625 12.5 Z " fill="#373637" transform="translate(244,386)"/>
<path d="M0 0 C0.99 0 1.98 0 3 0 C2.67 2.31 2.34 4.62 2 7 C2.66 6.67 3.32 6.34 4 6 C7 5.75 7 5.75 10 6 C12.36086122 9.54129184 12.57269578 10.82750218 12 15 C9.6442577 19.38655462 9.6442577 19.38655462 7 21 C3.27980164 21.50159978 -0.2705361 21.35269886 -4 21 C-2.98208077 13.89622327 -1.90094901 6.92488567 0 0 Z M3 9 C0.59926933 12.31995893 0.59926933 12.31995893 0.125 16.25 C0.41375 16.8275 0.7025 17.405 1 18 C1.99 18.33 2.98 18.66 4 19 C6.64573501 16.77122275 6.64573501 16.77122275 9 14 C8.95502158 11.72476911 8.95502158 11.72476911 8 10 C6.35 9.67 4.7 9.34 3 9 Z " fill="#333234" transform="translate(157,385)"/>
<path d="M0 0 C2.29013653 3.4352048 2.17842973 4.985331 2 9 C0.68 8.67 -0.64 8.34 -2 8 C-1.96519531 8.75925781 -1.93039063 9.51851562 -1.89453125 10.30078125 C-1.86746094 11.29464844 -1.84039062 12.28851563 -1.8125 13.3125 C-1.77769531 14.29863281 -1.74289063 15.28476563 -1.70703125 16.30078125 C-2 19 -2 19 -3.38671875 20.85546875 C-5 22 -5 22 -7 22 C-7.13277344 22.91523438 -7.26554687 23.83046875 -7.40234375 24.7734375 C-7.57894531 25.96195313 -7.75554687 27.15046875 -7.9375 28.375 C-8.11152344 29.55835938 -8.28554687 30.74171875 -8.46484375 31.9609375 C-9 35 -9 35 -10 37 C-10.66 37 -11.32 37 -12 37 C-12 37.66 -12 38.32 -12 39 C-12.66 39 -13.32 39 -14 39 C-13.24289403 24.61498653 -7.01178326 12.26627096 0 0 Z " fill="#763739" transform="translate(88,129)"/>
<path d="M0 0 C2.97 0 5.94 0 9 0 C9 0.66 9 1.32 9 2 C9.66 2 10.32 2 11 2 C11 3.32 11 4.64 11 6 C12.65 5.67 14.3 5.34 16 5 C16.33 6.32 16.66 7.64 17 9 C13.09019474 9.90789485 9.38627395 10.19467208 5.375 10.25 C4.24835938 10.27578125 3.12171875 10.3015625 1.9609375 10.328125 C-1 10 -1 10 -2.8984375 8.671875 C-4 7 -4 7 -4 4 C-2.68 4 -1.36 4 0 4 C0 2.68 0 1.36 0 0 Z " fill="#812F33" transform="translate(176,285)"/>
<path d="M0 0 C3.9375641 0.83294625 6.47919211 1.5312729 9.5 4.25 C11 7 11 7 10.9375 9.9375 C9.94286998 13.18662473 8.63031094 16.02291045 7 19 C4 15.25 4 15.25 4 13 C4.66 12.67 5.32 12.34 6 12 C5.34 11.67 4.68 11.34 4 11 C3.67 11.66 3.34 12.32 3 13 C0.4375 13.625 0.4375 13.625 -2 14 C-2.99 12.68 -3.98 11.36 -5 10 C-4.35699811 8.51960029 -3.71051501 7.04071218 -3.0625 5.5625 C-2.70285156 4.73878906 -2.34320313 3.91507812 -1.97265625 3.06640625 C-1 1 -1 1 0 0 Z M2 8 C2.33 8.66 2.66 9.32 3 10 C4.32 10 5.64 10 7 10 C7 8.68 7 7.36 7 6 C4.67642489 5.81509993 4.67642489 5.81509993 2 8 Z " fill="#353333" transform="translate(301,306)"/>
<path d="M0 0 C-2.125 1.1875 -2.125 1.1875 -5 2 C-7 1 -9 0 -11 -1 C-15.72982156 -1.51902467 -20.3895976 -1.18978127 -25 0 C-25 1.32 -25 2.64 -25 4 C-24.01 4 -23.02 4 -22 4 C-21.34 6.64 -20.68 9.28 -20 12 C-20.99 12 -21.98 12 -23 12 C-24.82421875 9.734375 -24.82421875 9.734375 -26.6875 6.75 C-27.31011719 5.77546875 -27.93273437 4.8009375 -28.57421875 3.796875 C-30 1 -30 1 -30 -3 C-19.64758175 -5.62918559 -9.28349318 -6.18899545 0 0 Z " fill="#6A3D43" transform="translate(229,211)"/>
<path d="M0 0 C0.99773437 0.02320313 1.99546875 0.04640625 3.0234375 0.0703125 C4.52777344 0.09738281 4.52777344 0.09738281 6.0625 0.125 C6.83335937 0.14820313 7.60421875 0.17140625 8.3984375 0.1953125 C7.87306026 5.2255201 7.29248964 10.21416489 6.3984375 15.1953125 C-0.70485197 16.51965461 -0.70485197 16.51965461 -4.5390625 15.1328125 C-6.6015625 13.1953125 -6.6015625 13.1953125 -7.6015625 10.3203125 C-7.6015625 5.4970061 -5.22580761 0.3923279 0 0 Z M-3.6015625 5.1953125 C-3.93496721 8.23726677 -3.93496721 8.23726677 -3.6015625 11.1953125 C-2.54726564 12.46003315 -2.54726564 12.46003315 -0.1640625 12.4453125 C0.6815625 12.3628125 1.5271875 12.2803125 2.3984375 12.1953125 C4.5503812 8.96739695 4.59930193 7.91130441 4.3984375 4.1953125 C0.22033681 3.00600063 0.22033681 3.00600063 -3.6015625 5.1953125 Z " fill="#383738" transform="translate(199.6015625,390.8046875)"/>
<path d="M0 0 C4.46149465 4.38940586 8.62718188 9.00019797 12.79296875 13.671875 C14.77817757 16.03135419 14.77817757 16.03135419 17 17 C17 17.66 17 18.32 17 19 C17.763125 19.28875 18.52625 19.5775 19.3125 19.875 C22 21 22 21 25 23 C24.5 24.8125 24.5 24.8125 23 27 C15.51933895 31.18917019 7.31632732 30.27250102 -1 30 C-1.33 29.34 -1.66 28.68 -2 28 C8.395 27.505 8.395 27.505 19 27 C18.505 24.525 18.505 24.525 18 22 C17.01 21.34 16.02 20.68 15 20 C15 19.34 15 18.68 15 18 C14.40316406 17.74089844 13.80632812 17.48179687 13.19140625 17.21484375 C10.83741563 15.90986856 9.61714344 14.64525787 7.9375 12.5625 C6.4520803 10.73823125 5.02426445 9.02302589 3.31640625 7.40234375 C2 6 2 6 2 4 C1.01 3.67 0.02 3.34 -1 3 C-0.67 2.01 -0.34 1.02 0 0 Z " fill="#6E3C3F" transform="translate(230,276)"/>
<path d="M0 0 C-0.52537724 5.0302076 -1.10594786 10.01885239 -2 15 C-5.02796892 15.6662851 -7.89415908 16.11407095 -11 16 C-14.125 13.9375 -14.125 13.9375 -16 11 C-16.16282541 7.09219015 -15.23989557 5.35597407 -13.0625 2.125 C-8.74551519 -0.87045885 -5.09810062 -0.4454651 0 0 Z M-12 5 C-12.25005386 8.04182893 -12.25005386 8.04182893 -12 11 C-10.94570314 12.26472065 -10.94570314 12.26472065 -8.5625 12.25 C-7.716875 12.1675 -6.87125 12.085 -6 12 C-3.85190829 8.77786243 -3.70613847 7.72224599 -4 4 C-5.05310277 2.72996677 -5.05310277 2.72996677 -7.4375 2.8125 C-10.16734675 2.73160017 -10.16734675 2.73160017 -12 5 Z " fill="#434242" transform="translate(299,391)"/>
<path d="M0 0 C-0.49869404 5.36891879 -1.02227532 10.69235173 -2 16 C-5.70820662 16.2833095 -9.30020465 16.43591109 -13 16 C-15.25 13.8125 -15.25 13.8125 -16 11 C-16 7.35146171 -15.04826156 6.06032695 -12.75 3.1875 C-10 1 -10 1 -7.3125 0.6875 C-6.1678125 0.8421875 -6.1678125 0.8421875 -5 1 C-3.00513429 1 -1.86437054 0 0 0 Z M-10.75 5.25 C-12.19299384 7.08883843 -12.19299384 7.08883843 -13 10 C-12.01 11.485 -12.01 11.485 -11 13 C-8.5 13.5 -8.5 13.5 -6 13 C-3.8480563 9.77208445 -3.79913557 8.71599191 -4 5 C-7.5427515 3.81636006 -7.5427515 3.81636006 -10.75 5.25 Z " fill="#393839" transform="translate(370,390)"/>
<path d="M0 0 C0.66 1.65 1.32 3.3 2 5 C1 6.5 1 6.5 -1 8 C-3.71846235 8.27345479 -6.25677199 8.13491285 -9 8 C-9 9.32 -9 10.64 -9 12 C-6.36 11.34 -3.72 10.68 -1 10 C-0.67 10.99 -0.34 11.98 0 13 C-3.71499122 15.47666082 -5.60907888 15.54886514 -10 15 C-12.58104542 12.25763924 -13 10.68948793 -13 6.9375 C-10.75144558 0.33237138 -6.49188841 -0.50916772 0 0 Z M-7 3 C-7.33 3.66 -7.66 4.32 -8 5 C-6.16299211 5.77242269 -6.16299211 5.77242269 -4 6 C-2.22809091 4.64555699 -2.22809091 4.64555699 -1 3 C-2.98 3 -4.96 3 -7 3 Z " fill="#3F3B3D" transform="translate(186,391)"/>
<path d="M0 0 C3.26954202 0.56371414 4.82575883 1.49962266 7 4 C6.34 4 5.68 4 5 4 C4.67 4.66 4.34 5.32 4 6 C3.67 5.01 3.34 4.02 3 3 C2.34 2.67 1.68 2.34 1 2 C1 2.66 1 3.32 1 4 C0.34 4 -0.32 4 -1 4 C-1.8441938 7.97977076 -2.44687265 11.97007218 -3 16 C-3.66 16 -4.32 16 -5 16 C-6.15672242 23.95246661 -7.12411337 31.38497366 -4 39 C-3.34 38.01 -2.68 37.02 -2 36 C-1.77865824 38.12368444 -1.57329993 40.24904024 -1.375 42.375 C-1.20097656 44.15003906 -1.20097656 44.15003906 -1.0234375 45.9609375 C-1.01570312 46.96382813 -1.00796875 47.96671875 -1 49 C-1.66 49.66 -2.32 50.32 -3 51 C-8.39092998 35.44331635 -11.18319853 20.71878936 -4 5 C-1.859375 2.13671875 -1.859375 2.13671875 0 0 Z " fill="#6D393B" transform="translate(188,216)"/>
<path d="M0 0 C-0.8125 1.9375 -0.8125 1.9375 -2 4 C-2.99 4.33 -3.98 4.66 -5 5 C-5.66 5.66 -6.32 6.32 -7 7 C-9.625 7.125 -9.625 7.125 -12 7 C-12 7.66 -12 8.32 -12 9 C-11.05253906 8.98259766 -11.05253906 8.98259766 -10.0859375 8.96484375 C-2.35035081 8.8868191 5.29234406 9.36988506 13 10 C13 10.33 13 10.66 13 11 C11.89140625 11.20496094 10.7828125 11.40992187 9.640625 11.62109375 C8.17707133 11.89316462 6.71353033 12.16530362 5.25 12.4375 C4.52039063 12.57220703 3.79078125 12.70691406 3.0390625 12.84570312 C-1.0620524 13.58588481 -1.0620524 13.58588481 -5.08203125 14.6640625 C-5.71496094 14.77492188 -6.34789062 14.88578125 -7 15 C-9.578125 13.12890625 -9.578125 13.12890625 -12.25 10.5625 C-13.14203125 9.71816406 -14.0340625 8.87382813 -14.953125 8.00390625 C-15.62859375 7.34261719 -16.3040625 6.68132812 -17 6 C-15.55630957 3.11261913 -13.74330462 2.95547092 -10.75 1.875 C-9.79609375 1.52179688 -8.8421875 1.16859375 -7.859375 0.8046875 C-5.0781977 0.02200646 -2.86925724 -0.15707613 0 0 Z " fill="#6E3C40" transform="translate(158,80)"/>
<path d="M0 0 C-1.4984799 6.4934129 -3.96636839 12.31868018 -6.9375 18.25 C-7.44120117 19.25933594 -7.44120117 19.25933594 -7.95507812 20.2890625 C-10.05099243 24.39170326 -12.24730651 28.29909268 -15 32 C-15.66 32 -16.32 32 -17 32 C-17.8709379 30.27921959 -18.72114558 28.54793677 -19.5625 26.8125 C-20.03816406 25.84957031 -20.51382812 24.88664062 -21.00390625 23.89453125 C-22.10199086 20.70362655 -22.11568789 19.15644364 -21 16 C-20.34 15.67 -19.68 15.34 -19 15 C-19.185625 15.598125 -19.37125 16.19625 -19.5625 16.8125 C-20.22093687 19.16408762 -20.22093687 19.16408762 -19 22 C-18.34 22 -17.68 22 -17 22 C-16.34 23.32 -15.68 24.64 -15 26 C-14.34 26 -13.68 26 -13 26 C-12.67 24.68 -12.34 23.36 -12 22 C-11.34 22 -10.68 22 -10 22 C-9.34 18.7 -8.68 15.4 -8 12 C-7.01 11.67 -6.02 11.34 -5 11 C-5.2475 9.9275 -5.495 8.855 -5.75 7.75 C-6 4 -6 4 -4.1875 1.5625 C-2 0 -2 0 0 0 Z " fill="#6F3C3D" transform="translate(287,218)"/>
<path d="M0 0 C1.051875 0.2475 1.051875 0.2475 2.125 0.5 C5.13888194 1.02415338 7.94713625 1.07099683 11 1 C12.4002792 6.46108889 11.42705634 10.69276568 10 16 C8.68 15.67 7.36 15.34 6 15 C6.66 11.37 7.32 7.74 8 4 C2.97954234 5.35458631 2.97954234 5.35458631 1.85546875 8.3828125 C1.63503906 9.28773438 1.41460937 10.19265625 1.1875 11.125 C0.95417969 12.03507812 0.72085938 12.94515625 0.48046875 13.8828125 C0.32191406 14.58148438 0.16335937 15.28015625 0 16 C-0.99 16 -1.98 16 -3 16 C-2.69075786 13.89535207 -2.3774944 11.7912947 -2.0625 9.6875 C-1.88847656 8.51574219 -1.71445313 7.34398437 -1.53515625 6.13671875 C-1 3 -1 3 0 0 Z " fill="#393839" transform="translate(215,390)"/>
<path d="M0 0 C3.63 0 7.26 0 11 0 C12.4002792 5.46108889 11.42705634 9.69276568 10 15 C9.01 15 8.02 15 7 15 C7.33 11.04 7.66 7.08 8 3 C2.97954234 4.35458631 2.97954234 4.35458631 1.85546875 7.3828125 C1.63503906 8.28773438 1.41460937 9.19265625 1.1875 10.125 C0.95417969 11.03507812 0.72085937 11.94515625 0.48046875 12.8828125 C0.32191406 13.58148438 0.16335938 14.28015625 0 15 C-0.99 15 -1.98 15 -3 15 C-2.69163768 12.87439563 -2.37818386 10.74952935 -2.0625 8.625 C-1.88847656 7.44164062 -1.71445312 6.25828125 -1.53515625 5.0390625 C-1 2 -1 2 0 0 Z " fill="#3C3B3C" transform="translate(306,391)"/>
<path d="M0 0 C0 0.99 0 1.98 0 3 C-1.98 3.66 -3.96 4.32 -6 5 C-7.09857724 11.1676029 -7.11539104 17.18415123 -7.0625 23.4375 C-7.05798828 24.45521484 -7.05347656 25.47292969 -7.04882812 26.52148438 C-7.03712437 29.01438509 -7.02072848 31.50716074 -7 34 C-7.66 33.67 -8.32 33.34 -9 33 C-9.39477539 31.19335938 -9.39477539 31.19335938 -9.59765625 28.84375 C-9.71657227 27.55597656 -9.71657227 27.55597656 -9.83789062 26.2421875 C-9.91201172 25.33726562 -9.98613281 24.43234375 -10.0625 23.5 C-10.219591 21.73954213 -10.37714038 19.9791251 -10.53515625 18.21875 C-10.64754639 16.92324219 -10.64754639 16.92324219 -10.76220703 15.6015625 C-11.11633465 11.72724639 -11.55615498 7.86498674 -12 4 C-10.56988027 3.13353333 -9.13059381 2.28218171 -7.6875 1.4375 C-6.48673828 0.72400391 -6.48673828 0.72400391 -5.26171875 -0.00390625 C-3 -1 -3 -1 0 0 Z " fill="#743A3A" transform="translate(288,158)"/>
<path d="M0 0 C0.99 0.66 1.98 1.32 3 2 C2.04661031 3.96074484 1.0871246 5.91852652 0.125 7.875 C-0.67550781 9.51082031 -0.67550781 9.51082031 -1.4921875 11.1796875 C-3 14 -3 14 -5 16 C-6.32 16 -7.64 16 -9 16 C-9.66 11.05 -10.32 6.1 -11 1 C-9.68 1 -8.36 1 -7 1 C-6.34 4.3 -5.68 7.6 -5 11 C-3.35 7.37 -1.7 3.74 0 0 Z " fill="#3D3C3C" transform="translate(278,390)"/>
<path d="M0 0 C9.44898461 3.55162883 16.16141514 9.72490973 23 17 C22.67 17.66 22.34 18.32 22 19 C21.401875 18.34 20.80375 17.68 20.1875 17 C18.12498166 14.6626154 18.12498166 14.6626154 15 15 C15 14.01 15 13.02 15 12 C11.7 11.34 8.4 10.68 5 10 C4.67 8.35 4.34 6.7 4 5 C1.03292954 3.14083176 1.03292954 3.14083176 -2 2 C-1.34 1.34 -0.68 0.68 0 0 Z " fill="#78393C" transform="translate(229,211)"/>
<path d="M0 0 C5.96490662 5.96490662 7.27300745 17.49245435 7.34716797 25.55859375 C7.29766036 29.04504496 7.18136739 32.51774605 7 36 C6.67 36 6.34 36 6 36 C4.26427722 26.68822938 2.5931489 17.46992897 2 8 C1.34 8 0.68 8 0 8 C-1.125 2.25 -1.125 2.25 0 0 Z " fill="#703D3E" transform="translate(261,244)"/>
<path d="M0 0 C0.79148437 0.27457031 1.58296875 0.54914063 2.3984375 0.83203125 C3.59339844 1.22455078 3.59339844 1.22455078 4.8125 1.625 C6.7734375 2.64453125 6.7734375 2.64453125 7.7734375 5.64453125 C8.4334375 5.64453125 9.0934375 5.64453125 9.7734375 5.64453125 C9.7734375 6.96453125 9.7734375 8.28453125 9.7734375 9.64453125 C4.0234375 10.76953125 4.0234375 10.76953125 1.7734375 9.64453125 C1.7734375 8.65453125 1.7734375 7.66453125 1.7734375 6.64453125 C1.1753125 6.56203125 0.5771875 6.47953125 -0.0390625 6.39453125 C-2.8231921 5.43997253 -3.65967392 4.07320854 -5.2265625 1.64453125 C-2.2265625 -0.35546875 -2.2265625 -0.35546875 0 0 Z " fill="#842E32" transform="translate(126.2265625,272.35546875)"/>
<path d="M0 0 C5.90134357 8.85201535 4.24405646 23.68183505 4 34 C3.34 34 2.68 34 2 34 C1.67 34.66 1.34 35.32 1 36 C1.00523682 35.34402832 1.01047363 34.68805664 1.01586914 34.01220703 C1.03661272 31.04981437 1.04965176 28.08743697 1.0625 25.125 C1.07087891 24.09246094 1.07925781 23.05992187 1.08789062 21.99609375 C1.09111328 21.00996094 1.09433594 20.02382812 1.09765625 19.0078125 C1.10289307 18.09660645 1.10812988 17.18540039 1.11352539 16.24658203 C1.14885565 13.96312491 1.14885565 13.96312491 0 12 C-0.07065617 9.95944995 -0.08421976 7.91665743 -0.0625 5.875 C-0.05347656 4.77929688 -0.04445313 3.68359375 -0.03515625 2.5546875 C-0.02355469 1.71164063 -0.01195312 0.86859375 0 0 Z " fill="#673335" transform="translate(288,162)"/>
<path d="M0 0 C2.97 0 5.94 0 9 0 C8.34 0.433125 7.68 0.86625 7 1.3125 C6.34 1.869375 5.68 2.42625 5 3 C5 3.99 5 4.98 5 6 C4.34 6.66 3.68 7.32 3 8 C2.67 8.66 2.34 9.32 2 10 C1.34 10 0.68 10 0 10 C0.33 10.33 0.66 10.66 1 11 C1.66 11 2.32 11 3 11 C2.25 15.75 2.25 15.75 0 18 C-0.99 17.67 -1.98 17.34 -3 17 C-3.33 16.01 -3.66 15.02 -4 14 C-5.65 14 -7.3 14 -9 14 C-8.67 12.68 -8.34 11.36 -8 10 C-7.01 10 -6.02 10 -5 10 C-5 10.66 -5 11.32 -5 12 C-1.9211575 11.3213524 -1.9211575 11.3213524 -0.75 9.0625 C-0.5025 8.381875 -0.255 7.70125 0 7 C-0.33 6.34 -0.66 5.68 -1 5 C-0.34 4.67 0.32 4.34 1 4 C0.01 3.67 -0.98 3.34 -2 3 C-1.34 2.34 -0.68 1.68 0 1 C0 0.67 0 0.34 0 0 Z " fill="#3C3B3C" transform="translate(380,313)"/>
<path d="M0 0 C0.33 0 0.66 0 1 0 C1.01981934 0.67466309 1.03963867 1.34932617 1.06005859 2.04443359 C1.1563811 5.15495861 1.2656181 8.26490789 1.375 11.375 C1.4059375 12.43589844 1.436875 13.49679688 1.46875 14.58984375 C1.68680055 20.51355042 2.23035432 26.08920175 3.58447266 31.86572266 C4 34 4 34 4 38 C3.01 37.67 2.02 37.34 1 37 C1 35.68 1 34.36 1 33 C0.34 33 -0.32 33 -1 33 C-1.33 26.4 -1.66 19.8 -2 13 C-1.67 13 -1.34 13 -1 13 C-0.67 8.71 -0.34 4.42 0 0 Z " fill="#7B4B4B" transform="translate(84,176)"/>
<path d="M0 0 C0.77964111 -0.00064453 1.55928223 -0.00128906 2.36254883 -0.00195312 C7.33657345 0.04471647 12.13789497 0.48718643 17.0625 1.1875 C13.55673803 3.52467465 12.20884595 3.41228396 8.07421875 3.34765625 C6.89279297 3.33669922 5.71136719 3.32574219 4.49414062 3.31445312 C2.64079102 3.28254883 2.64079102 3.28254883 0.75 3.25 C-1.68353205 3.21540002 -4.11713312 3.18529998 -6.55078125 3.16015625 C-7.63141846 3.14218994 -8.71205566 3.12422363 -9.82543945 3.10571289 C-12.95271048 3.18789974 -15.85741591 3.67161199 -18.9375 4.1875 C-22.3125 3.75 -22.3125 3.75 -24.9375 3.1875 C-24.9375 2.8575 -24.9375 2.5275 -24.9375 2.1875 C-16.59193568 0.79033527 -8.46346739 -0.00667137 0 0 Z " fill="#774146" transform="translate(182.9375,76.8125)"/>
<path d="M0 0 C0.99 0 1.98 0 3 0 C2.41509121 6.14154225 1.45933748 12.00679849 0 18 C0.99 18.33 1.98 18.66 3 19 C2.67 19.66 2.34 20.32 2 21 C0.35 21 -1.3 21 -3 21 C-4.06140282 17.81579155 -3.95892549 16.91540891 -3.22265625 13.76953125 C-3.03896484 12.96708984 -2.85527344 12.16464844 -2.66601562 11.33789062 C-2.36727539 10.08782227 -2.36727539 10.08782227 -2.0625 8.8125 C-1.86720703 7.96751953 -1.67191406 7.12253906 -1.47070312 6.25195312 C-0.98758736 4.166307 -0.49472096 2.08292386 0 0 Z " fill="#373636" transform="translate(347,385)"/>
<path d="M0 0 C2 1.375 2 1.375 4 3 C4 3.66 4 4.32 4 5 C4.99 4.67 5.98 4.34 7 4 C10.2295853 3.93101019 13.44622012 4.00248493 16.67578125 4.0625 C22.93424609 4.0973744 22.93424609 4.0973744 28 1 C28.66 2.32 29.32 3.64 30 5 C26.82086996 8.17913004 17.70868301 7.08283035 13.4375 7.125 C8.56324461 7.0833397 3.83110483 6.63358752 -1 6 C-0.67 4.02 -0.34 2.04 0 0 Z " fill="#6D3E40" transform="translate(168,290)"/>
<path d="M0 0 C0.99 0 1.98 0 3 0 C2.41509121 6.14154225 1.45933748 12.00679849 0 18 C0.99 18.33 1.98 18.66 3 19 C2.67 19.66 2.34 20.32 2 21 C0.35 21 -1.3 21 -3 21 C-3.43230491 13.65081658 -1.81774185 7.09784913 0 0 Z " fill="#373737" transform="translate(336,385)"/>
<path d="M0 0 C0.66 0.66 1.32 1.32 2 2 C2.68642578 2.68255859 2.68642578 2.68255859 3.38671875 3.37890625 C4.54544106 4.5432398 5.69257173 5.7191523 6.83203125 6.90234375 C11.24808357 11.44033834 15.81764336 15.36132406 21 19 C20.01 19.33 19.02 19.66 18 20 C18.33 20.66 18.66 21.32 19 22 C18.01 21.67 17.02 21.34 16 21 C14.8125 18.4375 14.8125 18.4375 14 16 C13.01 16 12.02 16 11 16 C9 14.1875 9 14.1875 7 12 C5.02376933 9.94472011 3.42334134 8.6155609 1 7 C0.3125 3.375 0.3125 3.375 0 0 Z " fill="#713B3B" transform="translate(105,247)"/>
<path d="M0 0 C7.26 0 14.52 0 22 0 C22 0.33 22 0.66 22 1 C18.7 1.33 15.4 1.66 12 2 C12 2.99 12 3.98 12 5 C9.04335481 6.4783226 6.25770263 6.06032783 3 6 C2.67 5.01 2.34 4.02 2 3 C1.34 2.67 0.68 2.34 0 2 C0 1.34 0 0.68 0 0 Z " fill="#302C2E" transform="translate(252,86)"/>
<path d="M0 0 C0.66 0.33 1.32 0.66 2 1 C2.92017937 10.42331839 2.92017937 10.42331839 0.6640625 14.2890625 C-0.81536616 15.97686139 -2.30922639 17.52560515 -4 19 C-4.66 18.67 -5.32 18.34 -6 18 C-5.67 16.906875 -5.34 15.81375 -5 14.6875 C-3.86913351 11.15421116 -3.86913351 11.15421116 -4 8 C-3.525625 7.54625 -3.05125 7.0925 -2.5625 6.625 C-0.55416651 4.53633317 -0.38130476 2.8216552 0 0 Z " fill="#413D3E" transform="translate(206,351)"/>
<path d="M0 0 C0.33 0 0.66 0 1 0 C1.73172108 3.56714026 2.02949266 6.87548919 1.9375 10.5 C1.87866676 14.36338273 2.51951165 17.39130964 4 21 C4.66 20.01 5.32 19.02 6 18 C6.22134176 20.12368444 6.42670007 22.24904024 6.625 24.375 C6.74101562 25.55835938 6.85703125 26.74171875 6.9765625 27.9609375 C6.98429688 28.96382813 6.99203125 29.96671875 7 31 C6.34 31.66 5.68 32.32 5 33 C1.08724277 21.70890058 -0.72373614 11.94968779 0 0 Z " fill="#7B494A" transform="translate(180,234)"/>
<path d="M0 0 C1.98 0.66 3.96 1.32 6 2 C2.27148129 5.89799684 2.27148129 5.89799684 -1.09375 6.16796875 C-2.28484375 6.17763672 -2.28484375 6.17763672 -3.5 6.1875 C-4.2940625 6.20167969 -5.088125 6.21585937 -5.90625 6.23046875 C-8 6 -8 6 -10 4 C-9.34 3.01 -8.68 2.02 -8 1 C-7.01 1.33 -6.02 1.66 -5 2 C-4.01 1.67 -3.02 1.34 -2 1 C-1.34 1.33 -0.68 1.66 0 2 C0 1.34 0 0.68 0 0 Z " fill="#3B3A3B" transform="translate(220,363)"/>
<path d="M0 0 C2.25917968 3.38876953 2.20896551 5.03582118 1.625 8.9921875 C0.62947765 12.19030306 -1.46993385 13.92404829 -4 16 C-6.97 14.35 -9.94 12.7 -13 11 C-13 10.67 -13 10.34 -13 10 C-9.04 10 -5.08 10 -1 10 C-1.020625 8.906875 -1.04125 7.81375 -1.0625 6.6875 C-1 3 -1 3 0 0 Z " fill="#724041" transform="translate(265,278)"/>
<path d="M0 0 C3.96 0 7.92 0 12 0 C12 0.33 12 0.66 12 1 C10.4221875 1.2165625 10.4221875 1.2165625 8.8125 1.4375 C5.84539451 1.87526966 2.93205634 2.37804866 0 3 C0 4.32 0 5.64 0 7 C0.99 7 1.98 7 3 7 C3.66 9.64 4.32 12.28 5 15 C4.01 15 3.02 15 2 15 C-1.30386425 10.93370553 -1.57219593 7.04808808 -2 2 C-1.34 2 -0.68 2 0 2 C0 1.34 0 0.68 0 0 Z " fill="#733437" transform="translate(204,208)"/>
<path d="M0 0 C1.32 0.66 2.64 1.32 4 2 C3.34 4.31 2.68 6.62 2 9 C2.66 8.67 3.32 8.34 4 8 C3.42805835 11.31726155 2.42999536 12.72635823 0 15 C-3.41356674 7.12253829 -3.41356674 7.12253829 -1.6875 2.4375 C-1.130625 1.633125 -0.57375 0.82875 0 0 Z " fill="#383637" transform="translate(179,347)"/>
<path d="M0 0 C4.20724483 1.55003757 6.08797801 4.39269729 8.6875 7.9375 C9.29174805 8.74477539 9.29174805 8.74477539 9.90820312 9.56835938 C11.72500534 12.03641063 13.0242387 14.0727161 14 17 C12.68 17.33 11.36 17.66 10 18 C10 17.34 10 16.68 10 16 C9.01 15.67 8.02 15.34 7 15 C7.66 14.67 8.32 14.34 9 14 C8.55914062 13.59910156 8.11828125 13.19820312 7.6640625 12.78515625 C5.81335903 10.79977717 4.65767509 8.8257938 3.375 6.4375 C2.94960937 5.65246094 2.52421875 4.86742187 2.0859375 4.05859375 C1.37623492 2.71322231 0.68025026 1.36050051 0 0 Z " fill="#6C3F40" transform="translate(195,221)"/>
<path d="M0 0 C3.625 0.375 3.625 0.375 7 1 C5.85386179 4.43841463 4.33516297 5.40543143 1.56640625 7.59375 C-0.84724654 9.76062034 -2.32739923 12.23377565 -4 15 C-4.99 14.67 -5.98 14.34 -7 14 C-6.34 13.67 -5.68 13.34 -5 13 C-5 12.34 -5 11.68 -5 11 C-4.34 11 -3.68 11 -3 11 C-2.67 9.68 -2.34 8.36 -2 7 C-1.34 7 -0.68 7 0 7 C-0.66 5.35 -1.32 3.7 -2 2 C-1.34 1.34 -0.68 0.68 0 0 Z " fill="#2C292B" transform="translate(220,100)"/>
<path d="M0 0 C0.66 0 1.32 0 2 0 C2 2.31 2 4.62 2 7 C-5.26153846 8.35384615 -5.26153846 8.35384615 -9 6.5625 C-9.66 6.046875 -10.32 5.53125 -11 5 C-10.67 4.01 -10.34 3.02 -10 2 C-7.36 2.33 -4.72 2.66 -2 3 C-1.34 2.01 -0.68 1.02 0 0 Z " fill="#2E2C2E" transform="translate(204,399)"/>
<path d="M0 0 C2.475 0.99 2.475 0.99 5 2 C5 2.66 5 3.32 5 4 C5.99 4.33 6.98 4.66 8 5 C9.36176581 6.98075027 10.69593116 8.98079663 12 11 C12.66 11.33 13.32 11.66 14 12 C14 13.32 14 14.64 14 16 C9.62113634 14.45512053 7.40854246 11.02730515 4.75 7.4375 C4.06164062 6.53354492 4.06164062 6.53354492 3.359375 5.61132812 C0 1.15715681 0 1.15715681 0 0 Z " fill="#724242" transform="translate(191,276)"/>
<path d="M0 0 C4.75 0.75 4.75 0.75 7 3 C6.67 3.66 6.34 4.32 6 5 C12.435 4.505 12.435 4.505 19 4 C19.33 4.66 19.66 5.32 20 6 C17.25048889 6.24913692 14.5023728 6.47491836 11.75 6.6875 C10.97269531 6.76033203 10.19539063 6.83316406 9.39453125 6.90820312 C3.57002825 7.33135078 3.57002825 7.33135078 0.453125 5.51953125 C-0.02640625 5.01808594 -0.5059375 4.51664062 -1 4 C-0.67 2.68 -0.34 1.36 0 0 Z " fill="#413D40" transform="translate(249,87)"/>
<path d="M0 0 C0.33 0.99 0.66 1.98 1 3 C1.66 3 2.32 3 3 3 C5.56616632 6.84924948 5.55097676 9.4349304 6 14 C4.35 14.33 2.7 14.66 1 15 C-0.44207941 12.11584117 -0.09394887 9.58278472 -0.0625 6.375 C-0.05347656 5.18648438 -0.04445312 3.99796875 -0.03515625 2.7734375 C-0.02355469 1.85820312 -0.01195312 0.94296875 0 0 Z " fill="#2F2E2F" transform="translate(153,357)"/>
<path d="M0 0 C0 0.99 0 1.98 0 3 C-4.455 3.495 -4.455 3.495 -9 4 C-9 9.61 -9 15.22 -9 21 C-9.33 21 -9.66 21 -10 21 C-10.66 15.39 -11.32 9.78 -12 4 C-3.375 -1.125 -3.375 -1.125 0 0 Z " fill="#6C4244" transform="translate(288,158)"/>
<path d="M0 0 C3 0 3 0 5.5 2.125 C8.02277829 5.02619503 9.69249212 7.38512527 11 11 C10.1875 13.375 10.1875 13.375 9 15 C5.65731632 13.32865816 5.28788632 9.64239663 4.09765625 6.25 C3.73542969 5.5075 3.37320313 4.765 3 4 C2.01 3.67 1.02 3.34 0 3 C0 2.01 0 1.02 0 0 Z " fill="#723534" transform="translate(250,231)"/>
<path d="M0 0 C2.0625 0.4375 2.0625 0.4375 4 1 C2.07289294 11.55808656 2.07289294 11.55808656 0 16 C-0.33 16 -0.66 16 -1 16 C-1.02685095 13.52076199 -1.04676547 11.0418116 -1.0625 8.5625 C-1.07506836 7.50192383 -1.07506836 7.50192383 -1.08789062 6.41992188 C-1.09653588 4.61306441 -1.05220011 2.80612397 -1 1 C-0.67 0.67 -0.34 0.34 0 0 Z " fill="#474346" transform="translate(145,266)"/>
<path d="M0 0 C-0.969375 0.53625 -1.93875 1.0725 -2.9375 1.625 C-6.77874156 3.81215591 -10.42790342 6.24616498 -14.08203125 8.73046875 C-16 10 -16 10 -18 11 C-19 8 -19 8 -18 5 C-14.3962102 3.47839986 -11.94779314 3 -8 3 C-7.67 2.34 -7.34 1.68 -7 1 C-4.01793274 -0.8886426 -3.49368922 -1.16456307 0 0 Z " fill="#413D3E" transform="translate(229,136)"/>
<path d="M0 0 C2.31 0 4.62 0 7 0 C7.66 1.65 8.32 3.3 9 5 C8 6.5 8 6.5 6 8 C3.28153765 8.27345479 0.74322801 8.13491285 -2 8 C-2 7.34 -2 6.68 -2 6 C-0.865625 5.71125 0.26875 5.4225 1.4375 5.125 C2.613125 4.75375 3.78875 4.3825 5 4 C5.33 3.34 5.66 2.68 6 2 C3.69 2 1.38 2 -1 2 C-0.67 1.34 -0.34 0.68 0 0 Z " fill="#302E2F" transform="translate(179,391)"/>
<path d="M0 0 C0.33 0.66 0.66 1.32 1 2 C1.66 2 2.32 2 3 2 C4.23076923 7.41538462 4.23076923 7.41538462 3.0625 10.375 C2.711875 10.91125 2.36125 11.4475 2 12 C2.66 12 3.32 12 4 12 C4.33 12.99 4.66 13.98 5 15 C4.34 15.66 3.68 16.32 3 17 C2.1319092 15.08959948 1.28098217 13.17139263 0.4375 11.25 C-0.03816406 10.18265625 -0.51382813 9.1153125 -1.00390625 8.015625 C-1.99715566 5.00861109 -2.22132801 3.85643927 -1 1 C-0.67 0.67 -0.34 0.34 0 0 Z " fill="#3D3B3B" transform="translate(106,169)"/>
<path d="M0 0 C1.32 0 2.64 0 4 0 C3.125 3.875 3.125 3.875 2 5 C1.85363946 8.36629251 1.92806521 10.78419562 3 14 C4.98 14 6.96 14 9 14 C7.68 14.33 6.36 14.66 5 15 C5 15.66 5 16.32 5 17 C3.078125 16.26953125 3.078125 16.26953125 1 15 C0.171875 13.01171875 0.171875 13.01171875 -0.25 10.6875 C-0.39566406 9.88699219 -0.54132813 9.08648437 -0.69140625 8.26171875 C-1.02751806 5.79831699 -1.23253834 3.48040901 -1 1 C-0.67 0.67 -0.34 0.34 0 0 Z " fill="#3C3B3C" transform="translate(312,349)"/>
<path d="M0 0 C0.99 0 1.98 0 3 0 C2.69052329 1.93798521 2.37731166 3.87537426 2.0625 5.8125 C1.88847656 6.89144531 1.71445312 7.97039062 1.53515625 9.08203125 C1 12 1 12 0 15 C-0.99 15 -1.98 15 -3 15 C-2.69163768 12.87439563 -2.37818386 10.74952935 -2.0625 8.625 C-1.88847656 7.44164062 -1.71445312 6.25828125 -1.53515625 5.0390625 C-1 2 -1 2 0 0 Z " fill="#373737" transform="translate(325,391)"/>
<path d="M0 0 C2.31 0 4.62 0 7 0 C7 0.99 7 1.98 7 3 C8.32 3.66 9.64 4.32 11 5 C11 6.32 11 7.64 11 9 C9.35 8.67 7.7 8.34 6 8 C6 7.34 6 6.68 6 6 C4.68 5.67 3.36 5.34 2 5 C2 3.68 2 2.36 2 1 C1.34 0.67 0.68 0.34 0 0 Z " fill="#3C393B" transform="translate(112,78)"/>
<path d="M0 0 C0.95651196 2.58258228 1.03620881 3.8650399 0.3125 6.5625 C-1.13645704 9.25342022 -2.38882004 10.4496119 -5 12 C-5.66 12 -6.32 12 -7 12 C-7.33 13.65 -7.66 15.3 -8 17 C-9.28735597 13.1379321 -8.41926846 12.01093532 -6.75 8.375 C-6.31171875 7.39273438 -5.8734375 6.41046875 -5.421875 5.3984375 C-4 3 -4 3 -1 2 C-0.67 1.34 -0.34 0.68 0 0 Z " fill="#3D3A3B" transform="translate(190,140)"/>
<path d="M0 0 C0.66 0 1.32 0 2 0 C2 4.95 2 9.9 2 15 C-1.96 13.02 -5.92 11.04 -10 9 C-9.34 8.34 -8.68 7.68 -8 7 C-8 7.66 -8 8.32 -8 9 C-5.36 9 -2.72 9 0 9 C0 6.03 0 3.06 0 0 Z " fill="#73464B" transform="translate(136,273)"/>
<path d="M0 0 C2.82674877 3.43337406 5.3569759 6.93945158 7.75 10.6875 C8.36359375 11.64011719 8.9771875 12.59273438 9.609375 13.57421875 C11 16 11 16 11 18 C10.34 18 9.68 18 9 18 C9 17.01 9 16.02 9 15 C8.01 15.33 7.02 15.66 6 16 C4.9375 14.125 4.9375 14.125 4 12 C4.33 11.34 4.66 10.68 5 10 C4.34 10 3.68 10 3 10 C0.96564469 6.27034861 0 4.33094958 0 0 Z " fill="#744346" transform="translate(218,256)"/>
<path d="M0 0 C0 0.66 0 1.32 0 2 C0.66 2.33 1.32 2.66 2 3 C-10.87 2.505 -10.87 2.505 -24 2 C-24 1.67 -24 1.34 -24 1 C-15.9874678 -0.03387512 -8.07094823 -0.10466648 0 0 Z " fill="#763F41" transform="translate(197,88)"/>
<path d="M0 0 C1.32 0 2.64 0 4 0 C4.66 3.96 5.32 7.92 6 12 C4.68 12.99 3.36 13.98 2 15 C1.34 10.05 0.68 5.1 0 0 Z " fill="#404040" transform="translate(267,391)"/>
<path d="M0 0 C1.32 0 2.64 0 4 0 C3.34 3.96 2.68 7.92 2 12 C1.34 11.34 0.68 10.68 0 10 C0 9.01 0 8.02 0 7 C-0.66 7 -1.32 7 -2 7 C-1.125 1.125 -1.125 1.125 0 0 Z " fill="#812C2C" transform="translate(270,233)"/>
<path d="M0 0 C1.65 0.33 3.3 0.66 5 1 C1.60133279 4.82350061 -2.43530459 7.71296575 -7 10 C-7.99 10 -8.98 10 -10 10 C-10 9.34 -10 8.68 -10 8 C-9.21625 7.731875 -8.4325 7.46375 -7.625 7.1875 C-4.71885077 6.15185568 -4.71885077 6.15185568 -3 3 C-2.34 3 -1.68 3 -1 3 C-0.67 2.01 -0.34 1.02 0 0 Z " fill="#5E353A" transform="translate(224,86)"/>
<path d="M0 0 C1 3 2 6 3 9 C4.32 9 5.64 9 7 9 C7 9.66 7 10.32 7 11 C4.1875 11.3125 4.1875 11.3125 1 11 C-0.9375 8.8125 -0.9375 8.8125 -2 6 C-1.6 1.6 -1.6 1.6 0 0 Z " fill="#2E2C2E" transform="translate(356,395)"/>
<path d="M0 0 C0.66 0 1.32 0 2 0 C1.47462276 5.0302076 0.89405214 10.01885239 0 15 C-0.66 15 -1.32 15 -2 15 C-2.33 14.34 -2.66 13.68 -3 13 C-3.66 12.67 -4.32 12.34 -5 12 C-4.54625 11.505 -4.0925 11.01 -3.625 10.5 C-1.41840633 7.10524051 -0.85608575 3.95116502 0 0 Z " fill="#323232" transform="translate(297,391)"/>
<path d="M0 0 C1.9375 0.8125 1.9375 0.8125 4 2 C4.33 2.99 4.66 3.98 5 5 C5.804375 5.309375 6.60875 5.61875 7.4375 5.9375 C10 7 10 7 11.3125 9.125 C11.6528125 10.053125 11.6528125 10.053125 12 11 C11.01 11.33 10.02 11.66 9 12 C9 11.34 9 10.68 9 10 C8.34 10 7.68 10 7 10 C3 5.52941176 3 5.52941176 3 3 C1.68 3 0.36 3 -1 3 C-0.67 2.01 -0.34 1.02 0 0 Z " fill="#333132" transform="translate(110,379)"/>
<path d="M0 0 C0.33 0 0.66 0 1 0 C1.3690205 11.52164009 1.3690205 11.52164009 -1 17 C-1.99 17 -2.98 17 -4 17 C-2.68 11.39 -1.36 5.78 0 0 Z " fill="#733D41" transform="translate(277,204)"/>
<path d="M0 0 C4.37785406 0.50032618 6.88159078 1.88159078 10 5 C10 6.32 10 7.64 10 9 C5.27745665 7.50867052 5.27745665 7.50867052 3.875 4.9375 C3.58625 4.298125 3.2975 3.65875 3 3 C2.01 2.67 1.02 2.34 0 2 C0 1.34 0 0.68 0 0 Z " fill="#343134" transform="translate(136,92)"/>
<path d="M0 0 C0.33 0 0.66 0 1 0 C1.33 1.65 1.66 3.3 2 5 C4.31 5.33 6.62 5.66 9 6 C8.67 6.99 8.34 7.98 8 9 C5.25 9.75 5.25 9.75 2 10 C-0.375 8.0625 -0.375 8.0625 -2 6 C-1.34 4.02 -0.68 2.04 0 0 Z " fill="#434242" transform="translate(286,397)"/>
<path d="M0 0 C0.5775 0.37125 1.155 0.7425 1.75 1.125 C4 2.29166667 4 2.29166667 6.25 1.125 C7.11625 0.568125 7.11625 0.568125 8 0 C6.08864614 3.53600465 4.37357234 5.78972846 1 8 C-0.32 7.34 -1.64 6.68 -3 6 C-2.34 5.34 -1.68 4.68 -1 4 C-0.3574765 1.93125966 -0.3574765 1.93125966 0 0 Z " fill="#363636" transform="translate(121,396)"/>
<path d="M0 0 C0.99 0 1.98 0 3 0 C3.6875 2.3125 3.6875 2.3125 4 5 C2.625 6.5625 2.625 6.5625 1 8 C0.28552357 10.10332891 0.28552357 10.10332891 0 12 C-1.20628008 9.66785852 -2.1654738 7.50357861 -3 5 C-1.75 2.3125 -1.75 2.3125 0 0 Z " fill="#403E3F" transform="translate(166,131)"/>
<path d="M0 0 C6.76923077 3.44615385 6.76923077 3.44615385 7.9375 6.25 C7.958125 6.8275 7.97875 7.405 8 8 C6.68 8 5.36 8 4 8 C4 7.34 4 6.68 4 6 C2.02 5.34 0.04 4.68 -2 4 C-1.34 2.68 -0.68 1.36 0 0 Z " fill="#373134" transform="translate(127,83)"/>
<path d="M0 0 C1.134375 0.020625 2.26875 0.04125 3.4375 0.0625 C3.7675 1.3825 4.0975 2.7025 4.4375 4.0625 C1.7975 3.7325 -0.8425 3.4025 -3.5625 3.0625 C-3.5625 4.3825 -3.5625 5.7025 -3.5625 7.0625 C-4.2225 7.0625 -4.8825 7.0625 -5.5625 7.0625 C-4.52245509 0.07934132 -4.52245509 0.07934132 0 0 Z " fill="#373737" transform="translate(247.5625,385.9375)"/>
<path d="M0 0 C1.32421875 1.42578125 1.32421875 1.42578125 2.6875 3.3125 C3.14511719 3.92738281 3.60273438 4.54226563 4.07421875 5.17578125 C4.53248047 6.07876953 4.53248047 6.07876953 5 7 C4.67 7.99 4.34 8.98 4 10 C3.34 8.68 2.68 7.36 2 6 C0.35 6.33 -1.3 6.66 -3 7 C-3.33 5.02 -3.66 3.04 -4 1 C-2 0 -2 0 0 0 Z " fill="#70353B" transform="translate(190,284)"/>
<path d="M0 0 C0 3.63 0 7.26 0 11 C-2.94678433 8.05321567 -4.32041919 5.75906182 -6 2 C-6 1.34 -6 0.68 -6 0 C-4 -1 -4 -1 0 0 Z " fill="#773D3F" transform="translate(224,245)"/>
<path d="M0 0 C3.77384561 3.77384561 4.125 9.87477764 4.125 15.0625 C4.08375 16.031875 4.0425 17.00125 4 18 C0.0658439 12.09876585 -0.27522305 6.88057626 0 0 Z " fill="#743432" transform="translate(181,240)"/>
<path d="M0 0 C1.65 0.33 3.3 0.66 5 1 C4.45912682 4.78611227 2.88277668 6.55400767 0 9 C-0.66 9 -1.32 9 -2 9 C-1 7 0 5 1 3 C0.01 3.33 -0.98 3.66 -2 4 C-2.99 3.01 -3.98 2.02 -5 1 C-2.525 1.495 -2.525 1.495 0 2 C0 1.34 0 0.68 0 0 Z " fill="#7E383B" transform="translate(219,84)"/>
<path d="M0 0 C0 0.99 0 1.98 0 3 C-1.65 2.67 -3.3 2.34 -5 2 C-5 3.32 -5 4.64 -5 6 C-5.99 6 -6.98 6 -8 6 C-8.99 6.33 -9.98 6.66 -11 7 C-11 5.68 -11 4.36 -11 3 C-9.68 3 -8.36 3 -7 3 C-6.67 2.01 -6.34 1.02 -6 0 C-3 -1 -3 -1 0 0 Z " fill="#75302E" transform="translate(219,83)"/>
<path d="M0 0 C0.99 0.33 1.98 0.66 3 1 C2.67 3.64 2.34 6.28 2 9 C0.79371992 6.66785852 -0.1654738 4.50357861 -1 2 C-0.67 1.34 -0.34 0.68 0 0 Z M-4 2 C-3.01 2.66 -2.02 3.32 -1 4 C-1 4.99 -1 5.98 -1 7 C-2.32 7.33 -3.64 7.66 -5 8 C-5 4 -5 4 -4 2 Z " fill="#3D393A" transform="translate(84,342)"/>
<path d="M0 0 C3 1 3 1 4.6875 3.3125 C6 6 6 6 6 10 C4.35 9.67 2.7 9.34 1 9 C1.20625 8.2575 1.4125 7.515 1.625 6.75 C2.04408751 3.67669159 1.61949011 2.57213134 0 0 Z " fill="#732D2E" transform="translate(193,220)"/>
<path d="M0 0 C0 0.99 0 1.98 0 3 C-0.33 3.33 -0.66 3.66 -1 4 C-0.34 4 0.32 4 1 4 C0.67 5.65 0.34 7.3 0 9 C-1.32 9.33 -2.64 9.66 -4 10 C-4 9.01 -4 8.02 -4 7 C-4.66 6.67 -5.32 6.34 -6 6 C-2.25 1.125 -2.25 1.125 0 0 Z " fill="#413D3E" transform="translate(221,141)"/>
<path d="M0 0 C2.29013653 3.4352048 2.17842973 4.985331 2 9 C0.68 8.67 -0.64 8.34 -2 8 C-2.33 8.66 -2.66 9.32 -3 10 C-4 7 -4 7 -3.22265625 5.17578125 C-2.1484375 3.45052083 -1.07421875 1.72526042 0 0 Z " fill="#703F44" transform="translate(88,129)"/>
<path d="M0 0 C5.44208234 0.34013015 8.93668198 3.70296528 13 7 C12.01 7.33 11.02 7.66 10 8 C10.33 8.66 10.66 9.32 11 10 C10.01 9.67 9.02 9.34 8 9 C6.8125 6.4375 6.8125 6.4375 6 4 C5.01 4 4.02 4 3 4 C2.01 3.34 1.02 2.68 0 2 C0 1.34 0 0.68 0 0 Z " fill="#784141" transform="translate(113,259)"/>
<path d="M0 0 C-0.8125 1.9375 -0.8125 1.9375 -2 4 C-2.99 4.33 -3.98 4.66 -5 5 C-5.66 5.66 -6.32 6.32 -7 7 C-7.66 6.67 -8.32 6.34 -9 6 C-9 5.01 -9 4.02 -9 3 C-8.34 3 -7.68 3 -7 3 C-7 2.34 -7 1.68 -7 1 C-4.53721199 -0.231394 -2.7204945 -0.07159196 0 0 Z " fill="#7B3A3C" transform="translate(158,80)"/>
<path d="M0 0 C4 7.71428571 4 7.71428571 4 12 C2.35 11.67 0.7 11.34 -1 11 C-0.67 9.35 -0.34 7.7 0 6 C-0.66 6 -1.32 6 -2 6 C-2 4.35 -2 2.7 -2 1 C-1.34 0.67 -0.68 0.34 0 0 Z " fill="#313030" transform="translate(269,343)"/>
<path d="M0 0 C3.77062485 5.65593728 3.13434477 12.41710631 3 19 C2.67 19 2.34 19 2 19 C-0.30844801 12.65176798 -0.19818283 6.70518586 0 0 Z " fill="#6E4041" transform="translate(288,162)"/>
<path d="M0 0 C0.66 0 1.32 0 2 0 C2.66 2.31 3.32 4.62 4 7 C3.34 6.67 2.68 6.34 2 6 C2 5.34 2 4.68 2 4 C-0.05270463 5.84188612 -0.05270463 5.84188612 -1 8 C-3.475 7.01 -3.475 7.01 -6 6 C-6 5.34 -6 4.68 -6 4 C-5.38125 3.896875 -4.7625 3.79375 -4.125 3.6875 C-1.63473516 3.12474627 -1.63473516 3.12474627 0 0 Z " fill="#2F2D2E" transform="translate(175,355)"/>
<path d="M0 0 C0.33 0.99 0.66 1.98 1 3 C0.67 3.33 0.34 3.66 0 4 C1.32 4.33 2.64 4.66 4 5 C3.67 5.99 3.34 6.98 3 8 C2.21625 7.835 1.4325 7.67 0.625 7.5 C-1.88208039 6.9376293 -1.88208039 6.9376293 -4 7 C-4.33 5.02 -4.66 3.04 -5 1 C-3 0 -3 0 0 0 Z " fill="#403E40" transform="translate(423,329)"/>
<path d="M0 0 C2 1 2 1 4 3 C3.8125 5 3.8125 5 3 7 C2.01 7.66 1.02 8.32 0 9 C-0.33 8.67 -0.66 8.34 -1 8 C-1.66 8.66 -2.32 9.32 -3 10 C-2.39009109 6.44219804 -1.4216319 3.3171411 0 0 Z " fill="#504C4D" transform="translate(290,324)"/>
<path d="M0 0 C2.35953094 2.35953094 2.49141413 3.77895617 3 7 C3.66 7 4.32 7 5 7 C5.33 8.65 5.66 10.3 6 12 C2.73991357 8.83047153 -0.22237877 5.60062011 -3 2 C-2.01 1.34 -1.02 0.68 0 0 Z " fill="#743E42" transform="translate(234,266)"/>
<path d="M0 0 C0.66 0.66 1.32 1.32 2 2 C1.9765625 4.3828125 1.9765625 4.3828125 1.625 7.125 C1.51414063 8.03507812 1.40328125 8.94515625 1.2890625 9.8828125 C1.19367188 10.58148438 1.09828125 11.28015625 1 12 C-0.32 11.67 -1.64 11.34 -3 11 C-2.01 7.37 -1.02 3.74 0 0 Z " fill="#363636" transform="translate(224,394)"/>
<path d="M0 0 C4.82034262 0.41317222 6.90992611 2.38019915 10 6 C10 6.66 10 7.32 10 8 C10.66 8 11.32 8 12 8 C11.67 8.66 11.34 9.32 11 10 C9.16375669 8.52444734 7.3310715 7.04446569 5.5 5.5625 C4.4790625 4.73878906 3.458125 3.91507812 2.40625 3.06640625 C1.6121875 2.38449219 0.818125 1.70257813 0 1 C0 0.67 0 0.34 0 0 Z " fill="#734644" transform="translate(240,278)"/>
<path d="M0 0 C4.21878192 -0.19622241 7.17010894 0.19769832 11 2 C9.68 2.99 8.36 3.98 7 5 C4.69 4.01 2.38 3.02 0 2 C0 1.34 0 0.68 0 0 Z " fill="#773E3C" transform="translate(218,208)"/>
<path d="M0 0 C2.0625 0.6875 2.0625 0.6875 5.0625 2.6875 C-2.97321429 4.96428571 -2.97321429 4.96428571 -6.9375 3.6875 C-2.95451094 -0.47653402 -2.95451094 -0.47653402 0 0 Z " fill="#3F3E3E" transform="translate(244.9375,162.3125)"/>
<path d="M0 0 C0.99 0 1.98 0 3 0 C2.67 2.97 2.34 5.94 2 9 C1.01 8.67 0.02 8.34 -1 8 C-1.625 5.6875 -1.625 5.6875 -2 3 C-1.34 2.01 -0.68 1.02 0 0 Z " fill="#404040" transform="translate(205,391)"/>
<path d="M0 0 C3 1 3 1 4 3 C4.13415472 5.6723621 4.04318541 8.32250488 4 11 C3.67 11 3.34 11 3 11 C3 9.02 3 7.04 3 5 C1.68 5.99 0.36 6.98 -1 8 C-1.625 5.6875 -1.625 5.6875 -2 3 C-1.34 2.01 -0.68 1.02 0 0 Z " fill="#3F3C3E" transform="translate(146,353)"/>
<path d="M0 0 C0.66 0 1.32 0 2 0 C2 3.63 2 7.26 2 11 C1.01 11.495 1.01 11.495 0 12 C-0.33 11.01 -0.66 10.02 -1 9 C-1.33 9 -1.66 9 -2 9 C-1.125 2.25 -1.125 2.25 0 0 Z " fill="#302F2F" transform="translate(234,343)"/>
<path d="M0 0 C3.83138362 1.10684416 6.36763169 1.97277644 9 5 C9.66 5.33 10.32 5.66 11 6 C10.67 6.99 10.34 7.98 10 9 C2.18691589 3.85046729 2.18691589 3.85046729 0 2 C0 1.34 0 0.68 0 0 Z " fill="#723E3F" transform="translate(105,265)"/>
<path d="M0 0 C3.80635497 3.20760251 7.54563567 6.40746109 11 10 C10.67 10.66 10.34 11.32 10 12 C9.401875 11.34 8.80375 10.68 8.1875 10 C6.12498166 7.6626154 6.12498166 7.6626154 3 8 C3 7.01 3 6.02 3 5 C2.34 5 1.68 5 1 5 C0.67 3.35 0.34 1.7 0 0 Z " fill="#6F4142" transform="translate(241,218)"/>
<path d="M0 0 C3.1130154 2.5470126 4.15834165 5.09776585 5 9 C4.125 12.375 4.125 12.375 3 15 C2.67 15 2.34 15 2 15 C1.66048381 13.43883181 1.32867456 11.87598662 1 10.3125 C0.814375 9.44238281 0.62875 8.57226562 0.4375 7.67578125 C0.01027953 5.06287036 -0.07616201 2.64186962 0 0 Z " fill="#454142" transform="translate(97,142)"/>
<path d="M0 0 C0.66 0.33 1.32 0.66 2 1 C2 3 2 5 2 7 C1.01 7.66 0.02 8.32 -1 9 C-4 7 -4 7 -5 5 C-3.35 3.35 -1.7 1.7 0 0 Z " fill="#302E2F" transform="translate(411,381)"/>
<path d="M0 0 C1.32 0 2.64 0 4 0 C4.12375 0.94875 4.2475 1.8975 4.375 2.875 C4.71687177 6.08667191 4.71687177 6.08667191 7 8 C4.13275314 7.42655063 3.1385485 7.1385485 1 5 C0.01 5.33 -0.98 5.66 -2 6 C-2 5.34 -2 4.68 -2 4 C-1.34 4 -0.68 4 0 4 C-0.33 3.01 -0.66 2.02 -1 1 C-0.67 0.67 -0.34 0.34 0 0 Z " fill="#423F40" transform="translate(195,350)"/>
<path d="M0 0 C1.32 0 2.64 0 4 0 C4.38922918 1.28745036 4.76098036 2.58019597 5.125 3.875 C5.33382812 4.59429687 5.54265625 5.31359375 5.7578125 6.0546875 C5.83773437 6.69664062 5.91765625 7.33859375 6 8 C5.34 8.66 4.68 9.32 4 10 C3.32845067 8.71086513 2.66291141 7.41859796 2 6.125 C1.62875 5.40570313 1.2575 4.68640625 0.875 3.9453125 C0 2 0 2 0 0 Z " fill="#6E3D3B" transform="translate(213,234)"/>
<path d="M0 0 C0.33 0.66 0.66 1.32 1 2 C0.67 2.66 0.34 3.32 0 4 C1.98 3.67 3.96 3.34 6 3 C2.25 8.875 2.25 8.875 0 10 C0.33 8.35 0.66 6.7 1 5 C0.01 5.33 -0.98 5.66 -2 6 C-1.125 1.125 -1.125 1.125 0 0 Z " fill="#3E3C3C" transform="translate(306,122)"/>
<path d="M0 0 C0.99 0 1.98 0 3 0 C4.38671875 1.53125 4.38671875 1.53125 5.6875 3.5 C6.12449219 4.1496875 6.56148437 4.799375 7.01171875 5.46875 C7.33785156 5.9740625 7.66398438 6.479375 8 7 C7.67 7.66 7.34 8.32 7 9 C5 9 3 9 1 9 C1 8.34 1 7.68 1 7 C1.66 7 2.32 7 3 7 C2.38722388 4.03824877 1.74627478 2.61941217 0 0 Z " fill="#2D2B2C" transform="translate(143,109)"/>
<path d="M0 0 C1.98 0 3.96 0 6 0 C6.33 1.98 6.66 3.96 7 6 C6.01 6.33 5.02 6.66 4 7 C4 5.35 4 3.7 4 2 C2.35 2 0.7 2 -1 2 C-0.67 1.34 -0.34 0.68 0 0 Z " fill="#343233" transform="translate(311,391)"/>
<path d="M0 0 C3.3 0 6.6 0 10 0 C10 0.33 10 0.66 10 1 C7.36 1 4.72 1 2 1 C1.87625 1.556875 1.7525 2.11375 1.625 2.6875 C0.94023145 5.22114364 0.00866237 7.57921032 -1 10 C-1.33 10 -1.66 10 -2 10 C-1.125 2.25 -1.125 2.25 0 0 Z " fill="#3D3D3D" transform="translate(388,391)"/>
<path d="M0 0 C0.33 0.66 0.66 1.32 1 2 C1.66 2 2.32 2 3 2 C2.25 9.75 2.25 9.75 0 12 C-1.28571429 3.42857143 -1.28571429 3.42857143 0 0 Z " fill="#3C3A3B" transform="translate(155,342)"/>
<path d="M0 0 C0.99 0 1.98 0 3 0 C3.25 2.75 3.25 2.75 3 6 C1 8.375 1 8.375 -1 10 C-0.67 6.7 -0.34 3.4 0 0 Z " fill="#3B3A3A" transform="translate(44,305)"/>
<path d="M0 0 C1.875 0.1875 1.875 0.1875 4 1 C5.5225431 3.68257593 6.12235992 5.24544717 5.625 8.3125 C5.41875 8.869375 5.2125 9.42625 5 10 C2.35534962 6.8745041 1.15585285 3.91211733 0 0 Z " fill="#6F3A3E" transform="translate(208,224)"/>
<path d="M0 0 C0.33 0.66 0.66 1.32 1 2 C0.67 2.66 0.34 3.32 0 4 C0.66 4 1.32 4 2 4 C2 6 2 6 0.625 7.625 C-1 9 -1 9 -3 9 C-2.67 7.35 -2.34 5.7 -2 4 C-2.66 4 -3.32 4 -4 4 C-3.67 3.01 -3.34 2.02 -3 1 C-2.01 0.67 -1.02 0.34 0 0 Z " fill="#333232" transform="translate(200,177)"/>
<path d="M0 0 C0.99 0 1.98 0 3 0 C3 2.64 3 5.28 3 8 C2.01 8.33 1.02 8.66 0 9 C-1.125 3.375 -1.125 3.375 0 0 Z " fill="#3F3D40" transform="translate(157,385)"/>
<path d="M0 0 C2.875 0.25 2.875 0.25 6 1 C7.375 3.0625 7.375 3.0625 8 5 C5.125 4.75 5.125 4.75 2 4 C0.625 1.9375 0.625 1.9375 0 0 Z " fill="#3E393D" transform="translate(336,363)"/>
<path d="M0 0 C3 2 3 2 3.6875 4.125 C3.790625 4.74375 3.89375 5.3625 4 6 C2.35 6.66 0.7 7.32 -1 8 C-1.66 6.68 -2.32 5.36 -3 4 C-2.01 3.67 -1.02 3.34 0 3 C0 2.01 0 1.02 0 0 Z " fill="#3B393A" transform="translate(424,321)"/>
<path d="M0 0 C3.99500618 1.3697164 6.80009492 3.25722422 10 6 C6.67179946 6.22692276 4.58198664 6.32162419 1.625 4.6875 C0 3 0 3 0 0 Z " fill="#743F40" transform="translate(126,267)"/>
<path d="M0 0 C3.05001831 3.66002197 7 9.07851471 7 14 C6.34 14 5.68 14 5 14 C4.15675328 12.421924 3.32576082 10.8372958 2.5 9.25 C2.0359375 8.36828125 1.571875 7.4865625 1.09375 6.578125 C0 4 0 4 0 0 Z " fill="#6C3A3C" transform="translate(211,242)"/>
<path d="M0 0 C2.76223278 2.76223278 2.57856291 5.20706617 3 9 C1.35 8.67 -0.3 8.34 -2 8 C-1.47731534 5.23723823 -0.89130413 2.6739124 0 0 Z " fill="#793639" transform="translate(83,224)"/>
<path d="M0 0 C-0.66 1.32 -1.32 2.64 -2 4 C-3.98 4 -5.96 4 -8 4 C-7.625 2.0625 -7.625 2.0625 -7 0 C-4.3333581 -1.33332095 -2.83319697 -0.67102033 0 0 Z " fill="#393438" transform="translate(230,98)"/>
<path d="M0 0 C-0.33 2.97 -0.66 5.94 -1 9 C-1.99 9 -2.98 9 -4 9 C-3.4140625 2.84765625 -3.4140625 2.84765625 -3 1 C-1 0 -1 0 0 0 Z " fill="#353535" transform="translate(216,397)"/>
<path d="M0 0 C0.66 0 1.32 0 2 0 C3.125 2.3125 3.125 2.3125 4 5 C3.01 6.485 3.01 6.485 2 8 C1.01 8 0.02 8 -1 8 C-0.67 5.36 -0.34 2.72 0 0 Z " fill="#3F3E3F" transform="translate(154,398)"/>
<path d="M0 0 C4.99275057 1.27721526 7.57611908 3.17330957 11 7 C10.01 7.495 10.01 7.495 9 8 C7.49712782 6.85793642 5.99776716 5.71125043 4.5 4.5625 C3.6646875 3.92441406 2.829375 3.28632813 1.96875 2.62890625 C1.3190625 2.09136719 0.669375 1.55382812 0 1 C0 0.67 0 0.34 0 0 Z " fill="#704243" transform="translate(205,292)"/>
<path d="M0 0 C2.15502531 3.23253796 2.46856135 4.25150923 2 8 C1.01 8.99 0.02 9.98 -1 11 C-1.33 7.7 -1.66 4.4 -2 1 C-1.34 0.67 -0.68 0.34 0 0 Z " fill="#3C3B3B" transform="translate(144,254)"/>
<path d="M0 0 C0.33 0 0.66 0 1 0 C1 1.65 1 3.3 1 5 C-0.9375 4.6875 -0.9375 4.6875 -3 4 C-3.33 3.01 -3.66 2.02 -4 1 C-3.01 1.33 -2.02 1.66 -1 2 C-0.67 1.34 -0.34 0.68 0 0 Z M-3 5 C-2.34 5 -1.68 5 -1 5 C-1 5.99 -1 6.98 -1 8 C-2.65 8.33 -4.3 8.66 -6 9 C-4.625 7 -4.625 7 -3 5 Z " fill="#433F40" transform="translate(419,367)"/>
<path d="M0 0 C3.28465896 2.79196011 5.01321958 6.23196817 7 10 C7 10.66 7 11.32 7 12 C4 11 4 11 2.8125 9.125 C2 7 2 7 2 4 C1.34 4 0.68 4 0 4 C0 2.68 0 1.36 0 0 Z " fill="#78494B" transform="translate(94,230)"/>
<path d="M0 0 C1.90389849 2.85584773 2.69462177 4.9311762 3.625 8.1875 C4.01558594 9.53908203 4.01558594 9.53908203 4.4140625 10.91796875 C4.60742188 11.60503906 4.80078125 12.29210937 5 13 C0.17970402 9.14376321 0.17970402 9.14376321 -0.33203125 5.88671875 C-0.3145776 3.92143786 -0.16596091 1.95833873 0 0 Z " fill="#744546" transform="translate(88,214)"/>
<path d="M0 0 C3.26954202 0.56371414 4.82575883 1.49962266 7 4 C6.34 4 5.68 4 5 4 C4.67 4.66 4.34 5.32 4 6 C3.67 5.01 3.34 4.02 3 3 C2.34 2.67 1.68 2.34 1 2 C1 2.66 1 3.32 1 4 C0.34 4 -0.32 4 -1 4 C-1.33 4.66 -1.66 5.32 -2 6 C-2.33 5.34 -2.66 4.68 -3 4 C-2.01 2.68 -1.02 1.36 0 0 Z " fill="#6C4544" transform="translate(188,216)"/>
<path d="M0 0 C0.66 0.33 1.32 0.66 2 1 C2.625 4.0625 2.625 4.0625 3 7 C2.360625 7.28875 1.72125 7.5775 1.0625 7.875 C-1.15206079 8.82823451 -1.15206079 8.82823451 -2 11 C-2.66 9.02 -3.32 7.04 -4 5 C-3.01 5.33 -2.02 5.66 -1 6 C-1.33 6.66 -1.66 7.32 -2 8 C-1.34 8 -0.68 8 0 8 C0 5.36 0 2.72 0 0 Z " fill="#3E3C3D" transform="translate(124,201)"/>
<path d="M0 0 C1.485 0.99 1.485 0.99 3 2 C3.66 1.67 4.32 1.34 5 1 C3.25 6.75 3.25 6.75 1 9 C-0.4783226 6.04335481 -0.06032783 3.25770263 0 0 Z " fill="#3E3A3B" transform="translate(188,170)"/>
<path d="M0 0 C0.99 0.495 0.99 0.495 2 1 C2 1.99 2 2.98 2 4 C3.65 3.34 5.3 2.68 7 2 C6.37611108 5.61855575 5.8290723 6.1709277 3 9 C2.01 6.03 1.02 3.06 0 0 Z " fill="#424041" transform="translate(176,353)"/>
<path d="M0 0 C3 0 3 0 4.6875 1.5 C5.120625 1.995 5.55375 2.49 6 3 C4.68 4.32 3.36 5.64 2 7 C0 4 0 4 0 0 Z " fill="#413F3F" transform="translate(271,347)"/>
<path d="M0 0 C1.32 1.65 2.64 3.3 4 5 C2.02 5.99 2.02 5.99 0 7 C0 6.34 0 5.68 0 5 C-0.99 4.67 -1.98 4.34 -3 4 C-2.34 3.67 -1.68 3.34 -1 3 C-0.67 2.01 -0.34 1.02 0 0 Z " fill="#74383A" transform="translate(205,232)"/>
<path d="M0 0 C3 0 3 0 5.625 2.25 C7.76579221 4.72881204 8.64840943 5.83568489 9 9 C7.53515625 7.73046875 6.0703125 6.4609375 4.60546875 5.19140625 C2.89287029 3.79128769 2.89287029 3.79128769 0 3 C0 2.01 0 1.02 0 0 Z " fill="#743F42" transform="translate(250,231)"/>
<path d="M0 0 C0.556875 0.33 1.11375 0.66 1.6875 1 C4.30284522 2.1309601 6.1806646 2.15662974 9 2 C8 5 8 5 6.25 6 C4 6 4 6 1.25 3.5625 C0.5075 2.716875 -0.235 1.87125 -1 1 C-0.67 0.67 -0.34 0.34 0 0 Z " fill="#5C3234" transform="translate(147,89)"/>
<path d="M0 0 C1.98 0 3.96 0 6 0 C6.33 0.99 6.66 1.98 7 3 C6.34 3 5.68 3 5 3 C4.67 3.66 4.34 4.32 4 5 C2 3.625 2 3.625 0 2 C0 1.34 0 0.68 0 0 Z " fill="#424042" transform="translate(161,391)"/>
<path d="M0 0 C0.33 1.98 0.66 3.96 1 6 C0.34 5.67 -0.32 5.34 -1 5 C-1.99 6.485 -1.99 6.485 -3 8 C-3 6.35 -3 4.7 -3 3 C-3.99 2.67 -4.98 2.34 -6 2 C-2.25 0 -2.25 0 0 0 Z " fill="#494748" transform="translate(226,391)"/>
<path d="M0 0 C0.99 0.33 1.98 0.66 3 1 C2.67 2.98 2.34 4.96 2 7 C1.01 7 0.02 7 -1 7 C-1.625 5.1875 -1.625 5.1875 -2 3 C-1.34 2.01 -0.68 1.02 0 0 Z " fill="#3D3D3D" transform="translate(436,349)"/>
<path d="M0 0 C1.65 0 3.3 0 5 0 C4.67 2.31 4.34 4.62 4 7 C3.34 7 2.68 7 2 7 C1.34 4.69 0.68 2.38 0 0 Z " fill="#3C3C3C" transform="translate(137,240)"/>
<path d="M0 0 C0.33 0 0.66 0 1 0 C0.67 3.96 0.34 7.92 0 12 C-0.66 11.67 -1.32 11.34 -2 11 C-1.85892253 9.54119891 -1.71197585 8.08296449 -1.5625 6.625 C-1.48128906 5.81289062 -1.40007812 5.00078125 -1.31640625 4.1640625 C-1 2 -1 2 0 0 Z " fill="#774140" transform="translate(290,196)"/>
<path d="M0 0 C0.99 0 1.98 0 3 0 C2.67 2.97 2.34 5.94 2 9 C1.01 8.34 0.02 7.68 -1 7 C-0.67 4.69 -0.34 2.38 0 0 Z " fill="#3F3F3F" transform="translate(336,385)"/>
<path d="M0 0 C0.33 0.99 0.66 1.98 1 3 C-2.3 3 -5.6 3 -9 3 C-7.04184491 -0.91631018 -3.95131158 -0.08589808 0 0 Z " fill="#2E2E2E" transform="translate(145,364)"/>
<path d="M0 0 C0.66 0 1.32 0 2 0 C0.25 5.75 0.25 5.75 -2 8 C-2.66 6.02 -3.32 4.04 -4 2 C-2.68 2 -1.36 2 0 2 C0 1.34 0 0.68 0 0 Z " fill="#3E3B3D" transform="translate(389,341)"/>
<path d="M0 0 C1.10844919 3.32534757 0.84454356 5.62182575 0 9 C-0.99 8.67 -1.98 8.34 -3 8 C-1.125 1.125 -1.125 1.125 0 0 Z " fill="#403C3D" transform="translate(202,165)"/>
<path d="M0 0 C2 0 4 0 6 0 C6 1.65 6 3.3 6 5 C5.34 4.67 4.68 4.34 4 4 C3.34 4.66 2.68 5.32 2 6 C0 3 0 3 0 0 Z " fill="#2E2B2B" transform="translate(162,129)"/>
<path d="M0 0 C0.70125 0.185625 1.4025 0.37125 2.125 0.5625 C5.33888698 1.05156976 7.83560336 0.66231558 11 0 C10.67 0.99 10.34 1.98 10 3 C6.65155086 4.05236973 5.40920111 4.20005388 2.1875 2.625 C1.465625 2.08875 0.74375 1.5525 0 1 C0 0.67 0 0.34 0 0 Z " fill="#424043" transform="translate(193,403)"/>
<path d="M0 0 C0.66 0.99 1.32 1.98 2 3 C1.67 3.99 1.34 4.98 1 6 C1 6.99 1 7.98 1 9 C-0.32 9.33 -1.64 9.66 -3 10 C-2.01 6.7 -1.02 3.4 0 0 Z " fill="#413E3E" transform="translate(274,326)"/>
<path d="M0 0 C1.09658936 3.28976808 0.79953138 4.71303767 0 8 C-1.32 8.33 -2.64 8.66 -4 9 C-2.94124926 5.59687262 -1.99097846 2.98646769 0 0 Z " fill="#413E3E" transform="translate(297,312)"/>
<path d="M0 0 C0.99 0 1.98 0 3 0 C4.20272819 2.40545638 4.10071472 3.94996953 4.0625 6.625 C4.05347656 7.44226563 4.04445312 8.25953125 4.03515625 9.1015625 C4.02355469 9.72804688 4.01195312 10.35453125 4 11 C3.67 11 3.34 11 3 11 C3 9.02 3 7.04 3 5 C2.34 5 1.68 5 1 5 C0.67 3.35 0.34 1.7 0 0 Z " fill="#713336" transform="translate(133,273)"/>
<path d="M0 0 C-0.75 7.75 -0.75 7.75 -3 10 C-3.6875 6.6875 -3.6875 6.6875 -4 3 C-1.87096774 0 -1.87096774 0 0 0 Z " fill="#724041" transform="translate(92,146)"/>
<path d="M0 0 C0.66 0.33 1.32 0.66 2 1 C2 1.66 2 2.32 2 3 C-1.22791555 5.1519437 -2.28400809 5.20086443 -6 5 C-6.33 4.34 -6.66 3.68 -7 3 C-6.21625 2.87625 -5.4325 2.7525 -4.625 2.625 C-1.85942178 2.20882007 -1.85942178 2.20882007 0 0 Z " fill="#2E2C2D" transform="translate(184,401)"/>
<path d="M0 0 C0.66 0 1.32 0 2 0 C1.25 2.4375 1.25 2.4375 0 5 C-2.125 5.8125 -2.125 5.8125 -4 6 C-3.67 4.68 -3.34 3.36 -3 2 C-2.67 2.33 -2.34 2.66 -2 3 C-1.34 2.01 -0.68 1.02 0 0 Z " fill="#2E2E2E" transform="translate(274,400)"/>
<path d="M0 0 C0.66 0 1.32 0 2 0 C1.34 2.64 0.68 5.28 0 8 C-0.66 7.67 -1.32 7.34 -2 7 C-1.125 1.125 -1.125 1.125 0 0 Z " fill="#323131" transform="translate(285,395)"/>
<path d="M0 0 C3.125 0.375 3.125 0.375 6 1 C3 3 3 3 1 3 C0.34 4.32 -0.32 5.64 -1 7 C-1.625 4.625 -1.625 4.625 -2 2 C-1.34 1.34 -0.68 0.68 0 0 Z " fill="#484647" transform="translate(358,392)"/>
<path d="M0 0 C1.32 0.66 2.64 1.32 4 2 C2.68 3.65 1.36 5.3 0 7 C-0.66 6.67 -1.32 6.34 -2 6 C-1.34 4.02 -0.68 2.04 0 0 Z " fill="#3D3D3D" transform="translate(420,389)"/>
<path d="M0 0 C1.125 3.75 1.125 3.75 0 6 C-0.66 6 -1.32 6 -2 6 C-2 6.66 -2 7.32 -2 8 C-2.99 8.33 -3.98 8.66 -5 9 C-5 8.34 -5 7.68 -5 7 C-4.34 7 -3.68 7 -3 7 C-3 6.34 -3 5.68 -3 5 C-3.66 4.67 -4.32 4.34 -5 4 C-3.68 4 -2.36 4 -1 4 C-0.67 2.68 -0.34 1.36 0 0 Z " fill="#2E2C2D" transform="translate(230,351)"/>
<path d="M0 0 C1.65 0 3.3 0 5 0 C5.33 0.66 5.66 1.32 6 2 C3.03 4.475 3.03 4.475 0 7 C0 4.66666667 0 2.33333333 0 0 Z " fill="#312F30" transform="translate(165,318)"/>
<path d="M0 0 C0.66 0.33 1.32 0.66 2 1 C2.33 1.99 2.66 2.98 3 4 C2.01 5.485 2.01 5.485 1 7 C-0.32 5.35 -1.64 3.7 -3 2 C-2.01 1.34 -1.02 0.68 0 0 Z " fill="#302E2F" transform="translate(58,293)"/>
<path d="M0 0 C2.16874252 0.50603992 3.99967627 0.99983813 6 2 C6 2.66 6 3.32 6 4 C6.66 4 7.32 4 8 4 C8 4.66 8 5.32 8 6 C6.68 5.67 5.36 5.34 4 5 C4 4.34 4 3.68 4 3 C2.68 2.34 1.36 1.68 0 1 C0 0.67 0 0.34 0 0 Z " fill="#653336" transform="translate(241,291)"/>
<path d="M0 0 C2.475 0.495 2.475 0.495 5 1 C5 2.66666667 5 4.33333333 5 6 C3.68 5.67 2.36 5.34 1 5 C0.67 3.35 0.34 1.7 0 0 Z " fill="#7D2B2D" transform="translate(127,277)"/>
<path d="M0 0 C1.41377341 2.63904371 2.37240135 5.07120629 3 8 C2.34 8 1.68 8 1 8 C0.67 8.66 0.34 9.32 0 10 C-0.95024979 6.30458414 -0.95024979 3.69541586 0 0 Z " fill="#3B3B3B" transform="translate(155,264)"/>
<path d="M0 0 C0.99 0.33 1.98 0.66 3 1 C3.33 3.31 3.66 5.62 4 8 C2.35 6.35 0.7 4.7 -1 3 C-0.67 2.01 -0.34 1.02 0 0 Z " fill="#74464C" transform="translate(199,208)"/>
<path d="M0 0 C0.99 0.33 1.98 0.66 3 1 C3 2.65 3 4.3 3 6 C2.34 6 1.68 6 1 6 C0.67 7.32 0.34 8.64 0 10 C0 6.7 0 3.4 0 0 Z " fill="#562927" transform="translate(289,179)"/>
<path d="M0 0 C0.66 0.66 1.32 1.32 2 2 C1.01 2.495 1.01 2.495 0 3 C0 2.01 0 1.02 0 0 Z M-2 2 C-1.01 2.495 -1.01 2.495 0 3 C0 3.99 0 4.98 0 6 C0.66 6 1.32 6 2 6 C2.33 6.99 2.66 7.98 3 9 C2.34 9.66 1.68 10.32 1 11 C0.01 8.03 -0.98 5.06 -2 2 Z " fill="#464445" transform="translate(108,175)"/>
<path d="M0 0 C2.99324263 1.0975223 3.84610901 1.67682892 5.25 4.625 C5.4975 5.40875 5.745 6.1925 6 7 C5.01 6.34 4.02 5.68 3 5 C3 4.34 3 3.68 3 3 C1.68 3 0.36 3 -1 3 C-0.67 2.01 -0.34 1.02 0 0 Z " fill="#2A2728" transform="translate(110,379)"/>
<path d="M0 0 C0.99 0.33 1.98 0.66 3 1 C2.01 3.31 1.02 5.62 0 8 C-0.99 6.68 -1.98 5.36 -3 4 C-2.01 3.34 -1.02 2.68 0 2 C0 1.34 0 0.68 0 0 Z " fill="#3F3B3C" transform="translate(143,322)"/>
<path d="M0 0 C1.98 0.495 1.98 0.495 4 1 C4 1.66 4 2.32 4 3 C4.66 3.33 5.32 3.66 6 4 C1.25 5.125 1.25 5.125 -1 4 C-0.67 3.34 -0.34 2.68 0 2 C0 1.34 0 0.68 0 0 Z " fill="#732E2D" transform="translate(122,266)"/>
<path d="M0 0 C0.99 0 1.98 0 3 0 C4.75 1.8125 4.75 1.8125 6 4 C5.67 4.99 5.34 5.98 5 7 C2.47411298 4.63707344 1.11179163 3.33537489 0 0 Z " fill="#754044" transform="translate(226,260)"/>
<path d="M0 0 C1.32 0.33 2.64 0.66 4 1 C4.33 2.32 4.66 3.64 5 5 C4.01 5.33 3.02 5.66 2 6 C1.34 4.02 0.68 2.04 0 0 Z " fill="#733D3F" transform="translate(82,232)"/>
<path d="M0 0 C0.66 0 1.32 0 2 0 C1.74438677 2.3431213 1.40729228 4.67843403 1 7 C0.01 7.495 0.01 7.495 -1 8 C-1.125 2.25 -1.125 2.25 0 0 Z " fill="#8D2C31" transform="translate(283,208)"/>
<path d="M0 0 C0.99 0.33 1.98 0.66 3 1 C2.67 3.64 2.34 6.28 2 9 C1.67 9 1.34 9 1 9 C0.67 6.03 0.34 3.06 0 0 Z " fill="#433E40" transform="translate(154,200)"/>
<path d="M0 0 C0.99 0.33 1.98 0.66 3 1 C2.67 3.97 2.34 6.94 2 10 C1.67 10 1.34 10 1 10 C1 7.69 1 5.38 1 3 C0.34 2.67 -0.32 2.34 -1 2 C-0.67 1.34 -0.34 0.68 0 0 Z " fill="#3C3C3C" transform="translate(181,192)"/>
<path d="M0 0 C1.65 0.33 3.3 0.66 5 1 C4.67 1.99 4.34 2.98 4 4 C1.625 4.625 1.625 4.625 -1 5 C-1.66 4.34 -2.32 3.68 -3 3 C-1.68 2.67 -0.36 2.34 1 2 C0.67 1.34 0.34 0.68 0 0 Z " fill="#3A393A" transform="translate(239,90)"/>
<path d="M0 0 C0 1.65 0 3.3 0 5 C-0.99 5 -1.98 5 -3 5 C-3 4.34 -3 3.68 -3 3 C-3.99 2.67 -4.98 2.34 -6 2 C-2.25 0 -2.25 0 0 0 Z " fill="#323032" transform="translate(247,88)"/>
<path d="M0 0 C0.33 0.66 0.66 1.32 1 2 C1.99 2.33 2.98 2.66 4 3 C4.33 3.99 4.66 4.98 5 6 C4.34 6 3.68 6 3 6 C2.34 6.66 1.68 7.32 1 8 C0.67 5.36 0.34 2.72 0 0 Z " fill="#3C3A3B" transform="translate(97,70)"/>
<path d="M0 0 C0.99 0 1.98 0 3 0 C3.66 1.65 4.32 3.3 5 5 C3.68 5 2.36 5 1 5 C0.67 3.35 0.34 1.7 0 0 Z " fill="#3A3939" transform="translate(249,401)"/>
<path d="M0 0 C0.5775 0.37125 1.155 0.7425 1.75 1.125 C4 2.29166667 4 2.29166667 6.25 1.125 C6.8275 0.75375 7.405 0.3825 8 0 C6.515 2.475 6.515 2.475 5 5 C2.525 4.01 2.525 4.01 0 3 C0 2.01 0 1.02 0 0 Z " fill="#413F40" transform="translate(121,396)"/>
<path d="M0 0 C0.99 0.66 1.98 1.32 3 2 C2.67 2.66 2.34 3.32 2 4 C1.01 4.33 0.02 4.66 -1 5 C-1 1 -1 1 0 0 Z M3 0 C3.66 0.66 4.32 1.32 5 2 C4.34 2 3.68 2 3 2 C3 1.34 3 0.68 3 0 Z " fill="#3E3E3E" transform="translate(25,385)"/>
<path d="M0 0 C1.98 0.495 1.98 0.495 4 1 C3.34 2.98 2.68 4.96 2 7 C0.4375 5.1875 0.4375 5.1875 -1 3 C-0.67 2.01 -0.34 1.02 0 0 Z " fill="#3A393A" transform="translate(427,373)"/>
<path d="M0 0 C1.5625 1.25 1.5625 1.25 3 3 C2.6875 5.1875 2.6875 5.1875 2 7 C1.34 7 0.68 7 0 7 C-0.66 5.35 -1.32 3.7 -2 2 C-1.34 1.34 -0.68 0.68 0 0 Z " fill="#3B3B3B" transform="translate(28,368)"/>
<path d="M0 0 C0.33 0.66 0.66 1.32 1 2 C1.66 2.144375 2.32 2.28875 3 2.4375 C3.66 2.623125 4.32 2.80875 5 3 C5.33 3.99 5.66 4.98 6 6 C4.68 6.99 3.36 7.98 2 9 C2.33 7.35 2.66 5.7 3 4 C2.01 3.67 1.02 3.34 0 3 C0 2.01 0 1.02 0 0 Z " fill="#403C3D" transform="translate(383,356)"/>
<path d="M0 0 C1.98 0.495 1.98 0.495 4 1 C3.67 2.65 3.34 4.3 3 6 C2.01 6 1.02 6 0 6 C-1 3 -1 3 0 0 Z " fill="#413E3E" transform="translate(114,356)"/>
<path d="M0 0 C0.66 1.32 1.32 2.64 2 4 C1.01 4.495 1.01 4.495 0 5 C-0.33 5.66 -0.66 6.32 -1 7 C-1.66 5.68 -2.32 4.36 -3 3 C-2.01 2.01 -1.02 1.02 0 0 Z " fill="#2E2C2D" transform="translate(46,312)"/>
<path d="M0 0 C1.65 0.33 3.3 0.66 5 1 C4.67 1.66 4.34 2.32 4 3 C3.34 3 2.68 3 2 3 C1.67 3.66 1.34 4.32 1 5 C0.01 4.67 -0.98 4.34 -2 4 C-1.34 2.68 -0.68 1.36 0 0 Z " fill="#3B3738" transform="translate(301,306)"/>
<path d="M0 0 C1.65 0 3.3 0 5 0 C4.67 0.99 4.34 1.98 4 3 C1.9375 3.6875 1.9375 3.6875 0 4 C0 2.68 0 1.36 0 0 Z " fill="#3C3C3C" transform="translate(329,307)"/>
<path d="M0 0 C0.66 0.33 1.32 0.66 2 1 C2.625 3.5625 2.625 3.5625 3 6 C1.68 6 0.36 6 -1 6 C-0.67 4.02 -0.34 2.04 0 0 Z " fill="#6B4748" transform="translate(168,290)"/>
<path d="M0 0 C1.32 0 2.64 0 4 0 C4 0.66 4 1.32 4 2 C2.03852126 3.38938077 0.03833424 4.7260411 -2 6 C-1.34 4.02 -0.68 2.04 0 0 Z " fill="#693F3F" transform="translate(171,284)"/>
<path d="M0 0 C1.76462683 3.08809695 2 4.23312136 2 8 C1.01 7.67 0.02 7.34 -1 7 C-0.67 4.69 -0.34 2.38 0 0 Z " fill="#714244" transform="translate(86,206)"/>
<path d="M0 0 C1.42944945 2.35438733 2.08661261 3.48032433 1.625 6.25 C1.41875 6.8275 1.2125 7.405 1 8 C0.34 8 -0.32 8 -1 8 C-1.04241723 5.66705225 -1.04092937 3.33297433 -1 1 C-0.67 0.67 -0.34 0.34 0 0 Z " fill="#6E3332" transform="translate(84,201)"/>
<path d="M0 0 C1.32 0 2.64 0 4 0 C5.8125 1.8125 5.8125 1.8125 7 4 C6.67 4.99 6.34 5.98 6 7 C6 6.34 6 5.68 6 5 C4.68 4.34 3.36 3.68 2 3 C2 2.34 2 1.68 2 1 C1.34 0.67 0.68 0.34 0 0 Z " fill="#322629" transform="translate(134,100)"/>
<path d="M0 0 C0.99 0 1.98 0 3 0 C3 0.99 3 1.98 3 3 C1.68 2.67 0.36 2.34 -1 2 C-0.67 1.34 -0.34 0.68 0 0 Z " fill="#3F3F3F" transform="translate(326,385)"/>
<path d="" fill="#615555" transform="translate(0,0)"/>
</svg>
